0, 0, Header, 1, 2, 480
1, 0, Start_track
1, 0, Tempo, 500000
1, 0, Time_signature, 4, 2, 24, 8
1, 0, Marker_t, "Start"
1, 288000, Marker_t, "End"
1, 288000, End_track
2, 0, Start_track
2, 0, Title_t, "Track 1"
2, 0, Note_on_c, 0, 80, 102
2, 0, Pitch_bend_c, 0, 8192
2, 0, Pitch_bend_c, 0, 8192
2, 1, Pitch_bend_c, 0, 8192
2, 2, Pitch_bend_c, 0, 8192
2, 3, Pitch_bend_c, 0, 8192
2, 4, Pitch_bend_c, 0, 8192
2, 5, Pitch_bend_c, 0, 8192
2, 6, Pitch_bend_c, 0, 8192
2, 7, Pitch_bend_c, 0, 8192
2, 8, Pitch_bend_c, 0, 8192
2, 9, Pitch_bend_c, 0, 8192
2, 10, Pitch_bend_c, 0, 8192
2, 11, Pitch_bend_c, 0, 8192
2, 12, Pitch_bend_c, 0, 8192
2, 13, Pitch_bend_c, 0, 8192
2, 14, Pitch_bend_c, 0, 8192
2, 15, Pitch_bend_c, 0, 8192
2, 16, Pitch_bend_c, 0, 8192
2, 17, Pitch_bend_c, 0, 8332
2, 18, Pitch_bend_c, 0, 8333
2, 19, Pitch_bend_c, 0, 8332
2, 20, Pitch_bend_c, 0, 8323
2, 21, Pitch_bend_c, 0, 8318
2, 22, Pitch_bend_c, 0, 8322
2, 23, Pitch_bend_c, 0, 8300
2, 24, Pitch_bend_c, 0, 8313
2, 25, Pitch_bend_c, 0, 8308
2, 26, Pitch_bend_c, 0, 8296
2, 27, Pitch_bend_c, 0, 8313
2, 28, Pitch_bend_c, 0, 8279
2, 29, Pitch_bend_c, 0, 8298
2, 30, Pitch_bend_c, 0, 8268
2, 31, Pitch_bend_c, 0, 8283
2, 32, Pitch_bend_c, 0, 8293
2, 33, Pitch_bend_c, 0, 8269
2, 34, Pitch_bend_c, 0, 8286
2, 35, Pitch_bend_c, 0, 8266
2, 36, Pitch_bend_c, 0, 8267
2, 37, Pitch_bend_c, 0, 8273
2, 38, Pitch_bend_c, 0, 8262
2, 39, Pitch_bend_c, 0, 8276
2, 40, Pitch_bend_c, 0, 8261
2, 41, Pitch_bend_c, 0, 8266
2, 42, Pitch_bend_c, 0, 8270
2, 43, Pitch_bend_c, 0, 8260
2, 44, Pitch_bend_c, 0, 8274
2, 45, Pitch_bend_c, 0, 8263
2, 46, Pitch_bend_c, 0, 8275
2, 47, Pitch_bend_c, 0, 8264
2, 48, Pitch_bend_c, 0, 8263
2, 49, Pitch_bend_c, 0, 8269
2, 50, Pitch_bend_c, 0, 8262
2, 51, Pitch_bend_c, 0, 8268
2, 52, Pitch_bend_c, 0, 8264
2, 53, Pitch_bend_c, 0, 8266
2, 54, Pitch_bend_c, 0, 8265
2, 55, Pitch_bend_c, 0, 8259
2, 56, Pitch_bend_c, 0, 8265
2, 57, Pitch_bend_c, 0, 8258
2, 58, Pitch_bend_c, 0, 8263
2, 59, Pitch_bend_c, 0, 8259
2, 60, Pitch_bend_c, 0, 8256
2, 61, Pitch_bend_c, 0, 8258
2, 62, Pitch_bend_c, 0, 8254
2, 63, Pitch_bend_c, 0, 8259
2, 64, Pitch_bend_c, 0, 8255
2, 65, Pitch_bend_c, 0, 8256
2, 66, Pitch_bend_c, 0, 8257
2, 67, Pitch_bend_c, 0, 8251
2, 68, Pitch_bend_c, 0, 8257
2, 69, Pitch_bend_c, 0, 8243
2, 70, Pitch_bend_c, 0, 8253
2, 71, Pitch_bend_c, 0, 8252
2, 72, Pitch_bend_c, 0, 8247
2, 73, Pitch_bend_c, 0, 8253
2, 74, Pitch_bend_c, 0, 8242
2, 75, Pitch_bend_c, 0, 8247
2, 76, Pitch_bend_c, 0, 8239
2, 77, Pitch_bend_c, 0, 8241
2, 78, Pitch_bend_c, 0, 8244
2, 79, Pitch_bend_c, 0, 8238
2, 80, Pitch_bend_c, 0, 8240
2, 81, Pitch_bend_c, 0, 8234
2, 82, Pitch_bend_c, 0, 8234
2, 83, Pitch_bend_c, 0, 8232
2, 84, Pitch_bend_c, 0, 8230
2, 85, Pitch_bend_c, 0, 8229
2, 86, Pitch_bend_c, 0, 8225
2, 87, Pitch_bend_c, 0, 8229
2, 88, Pitch_bend_c, 0, 8222
2, 89, Pitch_bend_c, 0, 8223
2, 90, Pitch_bend_c, 0, 8217
2, 91, Pitch_bend_c, 0, 8218
2, 92, Pitch_bend_c, 0, 8219
2, 93, Pitch_bend_c, 0, 8213
2, 94, Pitch_bend_c, 0, 8215
2, 95, Pitch_bend_c, 0, 8211
2, 96, Pitch_bend_c, 0, 8210
2, 97, Pitch_bend_c, 0, 8209
2, 98, Pitch_bend_c, 0, 8204
2, 99, Pitch_bend_c, 0, 8209
2, 100, Pitch_bend_c, 0, 8200
2, 101, Pitch_bend_c, 0, 8203
2, 102, Pitch_bend_c, 0, 8200
2, 103, Pitch_bend_c, 0, 8196
2, 104, Pitch_bend_c, 0, 8199
2, 105, Pitch_bend_c, 0, 8194
2, 106, Pitch_bend_c, 0, 8197
2, 107, Pitch_bend_c, 0, 8192
2, 108, Pitch_bend_c, 0, 8195
2, 109, Pitch_bend_c, 0, 8193
2, 110, Pitch_bend_c, 0, 8188
2, 111, Pitch_bend_c, 0, 8191
2, 112, Pitch_bend_c, 0, 8187
2, 113, Pitch_bend_c, 0, 8188
2, 114, Pitch_bend_c, 0, 8186
2, 115, Pitch_bend_c, 0, 8186
2, 116, Pitch_bend_c, 0, 8186
2, 117, Pitch_bend_c, 0, 8186
2, 118, Pitch_bend_c, 0, 8186
2, 119, Pitch_bend_c, 0, 8186
2, 120, Pitch_bend_c, 0, 8186
2, 121, Pitch_bend_c, 0, 8186
2, 122, Pitch_bend_c, 0, 8186
2, 123, Pitch_bend_c, 0, 8188
2, 124, Pitch_bend_c, 0, 8185
2, 125, Pitch_bend_c, 0, 8187
2, 126, Pitch_bend_c, 0, 8186
2, 127, Pitch_bend_c, 0, 8187
2, 128, Pitch_bend_c, 0, 8188
2, 129, Pitch_bend_c, 0, 8187
2, 130, Pitch_bend_c, 0, 8190
2, 131, Pitch_bend_c, 0, 8186
2, 132, Pitch_bend_c, 0, 8191
2, 133, Pitch_bend_c, 0, 8186
2, 134, Pitch_bend_c, 0, 8189
2, 135, Pitch_bend_c, 0, 8188
2, 136, Pitch_bend_c, 0, 8191
2, 137, Pitch_bend_c, 0, 8192
2, 138, Pitch_bend_c, 0, 8190
2, 139, Pitch_bend_c, 0, 8194
2, 140, Pitch_bend_c, 0, 8190
2, 141, Pitch_bend_c, 0, 8194
2, 142, Pitch_bend_c, 0, 8193
2, 143, Pitch_bend_c, 0, 8194
2, 144, Pitch_bend_c, 0, 8196
2, 145, Pitch_bend_c, 0, 8195
2, 146, Pitch_bend_c, 0, 8196
2, 147, Pitch_bend_c, 0, 8196
2, 148, Pitch_bend_c, 0, 8197
2, 149, Pitch_bend_c, 0, 8197
2, 150, Pitch_bend_c, 0, 8196
2, 151, Pitch_bend_c, 0, 8196
2, 152, Pitch_bend_c, 0, 8198
2, 153, Pitch_bend_c, 0, 8196
2, 154, Pitch_bend_c, 0, 8198
2, 155, Pitch_bend_c, 0, 8195
2, 156, Pitch_bend_c, 0, 8196
2, 157, Pitch_bend_c, 0, 8197
2, 158, Pitch_bend_c, 0, 8198
2, 159, Pitch_bend_c, 0, 8199
2, 160, Pitch_bend_c, 0, 8196
2, 161, Pitch_bend_c, 0, 8196
2, 162, Pitch_bend_c, 0, 8197
2, 163, Pitch_bend_c, 0, 8196
2, 164, Pitch_bend_c, 0, 8196
2, 165, Pitch_bend_c, 0, 8198
2, 166, Pitch_bend_c, 0, 8197
2, 167, Pitch_bend_c, 0, 8196
2, 168, Pitch_bend_c, 0, 8194
2, 169, Pitch_bend_c, 0, 8193
2, 170, Pitch_bend_c, 0, 8196
2, 171, Pitch_bend_c, 0, 8194
2, 172, Pitch_bend_c, 0, 8195
2, 173, Pitch_bend_c, 0, 8196
2, 174, Pitch_bend_c, 0, 8195
2, 175, Pitch_bend_c, 0, 8193
2, 176, Pitch_bend_c, 0, 8194
2, 177, Pitch_bend_c, 0, 8193
2, 178, Pitch_bend_c, 0, 8194
2, 179, Pitch_bend_c, 0, 8192
2, 180, Pitch_bend_c, 0, 8194
2, 181, Pitch_bend_c, 0, 8192
2, 182, Pitch_bend_c, 0, 8193
2, 183, Pitch_bend_c, 0, 8193
2, 184, Pitch_bend_c, 0, 8190
2, 185, Pitch_bend_c, 0, 8192
2, 186, Pitch_bend_c, 0, 8191
2, 187, Pitch_bend_c, 0, 8193
2, 188, Pitch_bend_c, 0, 8194
2, 189, Pitch_bend_c, 0, 8191
2, 190, Pitch_bend_c, 0, 8192
2, 191, Pitch_bend_c, 0, 8189
2, 192, Pitch_bend_c, 0, 8192
2, 193, Pitch_bend_c, 0, 8192
2, 194, Pitch_bend_c, 0, 8189
2, 195, Pitch_bend_c, 0, 8193
2, 196, Pitch_bend_c, 0, 8190
2, 197, Pitch_bend_c, 0, 8189
2, 198, Pitch_bend_c, 0, 8191
2, 199, Pitch_bend_c, 0, 8190
2, 200, Pitch_bend_c, 0, 8192
2, 201, Pitch_bend_c, 0, 8192
2, 202, Pitch_bend_c, 0, 8193
2, 203, Pitch_bend_c, 0, 8191
2, 204, Pitch_bend_c, 0, 8190
2, 205, Pitch_bend_c, 0, 8188
2, 206, Pitch_bend_c, 0, 8190
2, 207, Pitch_bend_c, 0, 8189
2, 208, Pitch_bend_c, 0, 8188
2, 209, Pitch_bend_c, 0, 8187
2, 210, Pitch_bend_c, 0, 8185
2, 211, Pitch_bend_c, 0, 8185
2, 212, Pitch_bend_c, 0, 8182
2, 213, Pitch_bend_c, 0, 8181
2, 214, Pitch_bend_c, 0, 8183
2, 215, Pitch_bend_c, 0, 8180
2, 216, Pitch_bend_c, 0, 8182
2, 217, Pitch_bend_c, 0, 8181
2, 218, Pitch_bend_c, 0, 8178
2, 219, Pitch_bend_c, 0, 8178
2, 220, Pitch_bend_c, 0, 8177
2, 221, Pitch_bend_c, 0, 8177
2, 222, Pitch_bend_c, 0, 8176
2, 223, Pitch_bend_c, 0, 8175
2, 224, Pitch_bend_c, 0, 8175
2, 225, Pitch_bend_c, 0, 8174
2, 226, Pitch_bend_c, 0, 8177
2, 227, Pitch_bend_c, 0, 8174
2, 228, Pitch_bend_c, 0, 8178
2, 229, Pitch_bend_c, 0, 8178
2, 230, Pitch_bend_c, 0, 8176
2, 231, Pitch_bend_c, 0, 8179
2, 232, Pitch_bend_c, 0, 8176
2, 233, Pitch_bend_c, 0, 8178
2, 234, Pitch_bend_c, 0, 8180
2, 235, Pitch_bend_c, 0, 8180
2, 236, Pitch_bend_c, 0, 8183
2, 237, Pitch_bend_c, 0, 8182
2, 238, Pitch_bend_c, 0, 8182
2, 239, Pitch_bend_c, 0, 8186
2, 240, Pitch_bend_c, 0, 8183
2, 241, Pitch_bend_c, 0, 8190
2, 242, Pitch_bend_c, 0, 8187
2, 243, Pitch_bend_c, 0, 8193
2, 244, Pitch_bend_c, 0, 8194
2, 245, Pitch_bend_c, 0, 8195
2, 246, Pitch_bend_c, 0, 8198
2, 247, Pitch_bend_c, 0, 8196
2, 248, Pitch_bend_c, 0, 8200
2, 249, Pitch_bend_c, 0, 8199
2, 250, Pitch_bend_c, 0, 8202
2, 251, Pitch_bend_c, 0, 8205
2, 252, Pitch_bend_c, 0, 8206
2, 253, Pitch_bend_c, 0, 8210
2, 254, Pitch_bend_c, 0, 8209
2, 255, Pitch_bend_c, 0, 8211
2, 256, Pitch_bend_c, 0, 8211
2, 257, Pitch_bend_c, 0, 8214
2, 258, Pitch_bend_c, 0, 8212
2, 259, Pitch_bend_c, 0, 8215
2, 260, Pitch_bend_c, 0, 8214
2, 261, Pitch_bend_c, 0, 8216
2, 262, Pitch_bend_c, 0, 8218
2, 263, Pitch_bend_c, 0, 8216
2, 264, Pitch_bend_c, 0, 8220
2, 265, Pitch_bend_c, 0, 8218
2, 266, Pitch_bend_c, 0, 8219
2, 267, Pitch_bend_c, 0, 8220
2, 268, Pitch_bend_c, 0, 8218
2, 269, Pitch_bend_c, 0, 8218
2, 270, Pitch_bend_c, 0, 8219
2, 271, Pitch_bend_c, 0, 8218
2, 272, Pitch_bend_c, 0, 8220
2, 273, Pitch_bend_c, 0, 8219
2, 274, Pitch_bend_c, 0, 8219
2, 275, Pitch_bend_c, 0, 8218
2, 276, Pitch_bend_c, 0, 8218
2, 277, Pitch_bend_c, 0, 8219
2, 278, Pitch_bend_c, 0, 8219
2, 279, Pitch_bend_c, 0, 8221
2, 280, Pitch_bend_c, 0, 8221
2, 281, Pitch_bend_c, 0, 8220
2, 282, Pitch_bend_c, 0, 8220
2, 283, Pitch_bend_c, 0, 8220
2, 284, Pitch_bend_c, 0, 8217
2, 285, Pitch_bend_c, 0, 8219
2, 286, Pitch_bend_c, 0, 8218
2, 287, Pitch_bend_c, 0, 8219
2, 288, Pitch_bend_c, 0, 8219
2, 289, Pitch_bend_c, 0, 8218
2, 290, Pitch_bend_c, 0, 8221
2, 291, Pitch_bend_c, 0, 8217
2, 292, Pitch_bend_c, 0, 8221
2, 293, Pitch_bend_c, 0, 8216
2, 294, Pitch_bend_c, 0, 8217
2, 295, Pitch_bend_c, 0, 8217
2, 296, Pitch_bend_c, 0, 8211
2, 297, Pitch_bend_c, 0, 8216
2, 298, Pitch_bend_c, 0, 8211
2, 299, Pitch_bend_c, 0, 8212
2, 300, Pitch_bend_c, 0, 8211
2, 301, Pitch_bend_c, 0, 8213
2, 302, Pitch_bend_c, 0, 8213
2, 303, Pitch_bend_c, 0, 8208
2, 304, Pitch_bend_c, 0, 8212
2, 305, Pitch_bend_c, 0, 8209
2, 306, Pitch_bend_c, 0, 8211
2, 307, Pitch_bend_c, 0, 8208
2, 308, Pitch_bend_c, 0, 8207
2, 309, Pitch_bend_c, 0, 8208
2, 310, Pitch_bend_c, 0, 8205
2, 311, Pitch_bend_c, 0, 8205
2, 312, Pitch_bend_c, 0, 8203
2, 313, Pitch_bend_c, 0, 8202
2, 314, Pitch_bend_c, 0, 8201
2, 315, Pitch_bend_c, 0, 8198
2, 316, Pitch_bend_c, 0, 8203
2, 317, Pitch_bend_c, 0, 8197
2, 318, Pitch_bend_c, 0, 8199
2, 319, Pitch_bend_c, 0, 8200
2, 320, Pitch_bend_c, 0, 8195
2, 321, Pitch_bend_c, 0, 8197
2, 322, Pitch_bend_c, 0, 8194
2, 323, Pitch_bend_c, 0, 8198
2, 324, Pitch_bend_c, 0, 8194
2, 325, Pitch_bend_c, 0, 8198
2, 326, Pitch_bend_c, 0, 8201
2, 327, Pitch_bend_c, 0, 8197
2, 328, Pitch_bend_c, 0, 8203
2, 329, Pitch_bend_c, 0, 8198
2, 330, Pitch_bend_c, 0, 8203
2, 331, Pitch_bend_c, 0, 8201
2, 332, Pitch_bend_c, 0, 8203
2, 333, Pitch_bend_c, 0, 8206
2, 334, Pitch_bend_c, 0, 8202
2, 335, Pitch_bend_c, 0, 8207
2, 336, Pitch_bend_c, 0, 8204
2, 337, Pitch_bend_c, 0, 8205
2, 338, Pitch_bend_c, 0, 8205
2, 339, Pitch_bend_c, 0, 8206
2, 340, Pitch_bend_c, 0, 8209
2, 341, Pitch_bend_c, 0, 8207
2, 342, Pitch_bend_c, 0, 8209
2, 343, Pitch_bend_c, 0, 8210
2, 344, Pitch_bend_c, 0, 8210
2, 345, Pitch_bend_c, 0, 8216
2, 346, Pitch_bend_c, 0, 8213
2, 347, Pitch_bend_c, 0, 8218
2, 348, Pitch_bend_c, 0, 8216
2, 349, Pitch_bend_c, 0, 8213
2, 350, Pitch_bend_c, 0, 8221
2, 351, Pitch_bend_c, 0, 8219
2, 352, Pitch_bend_c, 0, 8223
2, 353, Pitch_bend_c, 0, 8224
2, 354, Pitch_bend_c, 0, 8223
2, 355, Pitch_bend_c, 0, 8225
2, 356, Pitch_bend_c, 0, 8223
2, 357, Pitch_bend_c, 0, 8225
2, 358, Pitch_bend_c, 0, 8227
2, 359, Pitch_bend_c, 0, 8226
2, 360, Pitch_bend_c, 0, 8228
2, 361, Pitch_bend_c, 0, 8230
2, 362, Pitch_bend_c, 0, 8228
2, 363, Pitch_bend_c, 0, 8232
2, 364, Pitch_bend_c, 0, 8228
2, 365, Pitch_bend_c, 0, 8228
2, 366, Pitch_bend_c, 0, 8231
2, 367, Pitch_bend_c, 0, 8229
2, 368, Pitch_bend_c, 0, 8233
2, 369, Pitch_bend_c, 0, 8231
2, 370, Pitch_bend_c, 0, 8235
2, 371, Pitch_bend_c, 0, 8234
2, 372, Pitch_bend_c, 0, 8233
2, 373, Pitch_bend_c, 0, 8237
2, 374, Pitch_bend_c, 0, 8236
2, 375, Pitch_bend_c, 0, 8238
2, 376, Pitch_bend_c, 0, 8239
2, 377, Pitch_bend_c, 0, 8237
2, 378, Pitch_bend_c, 0, 8241
2, 379, Pitch_bend_c, 0, 8238
2, 380, Pitch_bend_c, 0, 8241
2, 381, Pitch_bend_c, 0, 8243
2, 382, Pitch_bend_c, 0, 8239
2, 383, Pitch_bend_c, 0, 8241
2, 384, Pitch_bend_c, 0, 8242
2, 385, Pitch_bend_c, 0, 8240
2, 386, Pitch_bend_c, 0, 8242
2, 387, Pitch_bend_c, 0, 8241
2, 388, Pitch_bend_c, 0, 8240
2, 389, Pitch_bend_c, 0, 8242
2, 390, Pitch_bend_c, 0, 8240
2, 391, Pitch_bend_c, 0, 8242
2, 392, Pitch_bend_c, 0, 8239
2, 393, Pitch_bend_c, 0, 8239
2, 394, Pitch_bend_c, 0, 8238
2, 395, Pitch_bend_c, 0, 8237
2, 396, Pitch_bend_c, 0, 8240
2, 397, Pitch_bend_c, 0, 8238
2, 398, Pitch_bend_c, 0, 8239
2, 399, Pitch_bend_c, 0, 8239
2, 400, Pitch_bend_c, 0, 8238
2, 401, Pitch_bend_c, 0, 8239
2, 402, Pitch_bend_c, 0, 8238
2, 403, Pitch_bend_c, 0, 8239
2, 404, Pitch_bend_c, 0, 8238
2, 405, Pitch_bend_c, 0, 8238
2, 406, Pitch_bend_c, 0, 8239
2, 407, Pitch_bend_c, 0, 8239
2, 408, Pitch_bend_c, 0, 8239
2, 409, Pitch_bend_c, 0, 8237
2, 410, Pitch_bend_c, 0, 8240
2, 411, Pitch_bend_c, 0, 8238
2, 412, Pitch_bend_c, 0, 8238
2, 413, Pitch_bend_c, 0, 8239
2, 414, Pitch_bend_c, 0, 8239
2, 415, Pitch_bend_c, 0, 8239
2, 416, Pitch_bend_c, 0, 8238
2, 417, Pitch_bend_c, 0, 8239
2, 418, Pitch_bend_c, 0, 8239
2, 419, Pitch_bend_c, 0, 8238
2, 420, Pitch_bend_c, 0, 8239
2, 421, Pitch_bend_c, 0, 8239
2, 422, Pitch_bend_c, 0, 8239
2, 423, Pitch_bend_c, 0, 8238
2, 424, Pitch_bend_c, 0, 8240
2, 425, Pitch_bend_c, 0, 8239
2, 426, Pitch_bend_c, 0, 8239
2, 427, Pitch_bend_c, 0, 8242
2, 428, Pitch_bend_c, 0, 8239
2, 429, Pitch_bend_c, 0, 8241
2, 430, Pitch_bend_c, 0, 8239
2, 431, Pitch_bend_c, 0, 8239
2, 432, Pitch_bend_c, 0, 8241
2, 433, Pitch_bend_c, 0, 8239
2, 434, Pitch_bend_c, 0, 8239
2, 435, Pitch_bend_c, 0, 8237
2, 436, Pitch_bend_c, 0, 8237
2, 437, Pitch_bend_c, 0, 8235
2, 438, Pitch_bend_c, 0, 8234
2, 439, Pitch_bend_c, 0, 8234
2, 440, Pitch_bend_c, 0, 8230
2, 441, Pitch_bend_c, 0, 8233
2, 442, Pitch_bend_c, 0, 8227
2, 443, Pitch_bend_c, 0, 8226
2, 444, Pitch_bend_c, 0, 8228
2, 445, Pitch_bend_c, 0, 8222
2, 446, Pitch_bend_c, 0, 8226
2, 447, Pitch_bend_c, 0, 8221
2, 448, Pitch_bend_c, 0, 8221
2, 449, Pitch_bend_c, 0, 8220
2, 450, Pitch_bend_c, 0, 8214
2, 451, Pitch_bend_c, 0, 8214
2, 452, Pitch_bend_c, 0, 8211
2, 453, Pitch_bend_c, 0, 8212
2, 454, Pitch_bend_c, 0, 8215
2, 455, Pitch_bend_c, 0, 8213
2, 456, Pitch_bend_c, 0, 8213
2, 457, Pitch_bend_c, 0, 8218
2, 458, Pitch_bend_c, 0, 8221
2, 459, Pitch_bend_c, 0, 8215
2, 460, Pitch_bend_c, 0, 8234
2, 461, Pitch_bend_c, 0, 8227
2, 462, Pitch_bend_c, 0, 8239
2, 463, Pitch_bend_c, 0, 8254
2, 464, Pitch_bend_c, 0, 8242
2, 465, Pitch_bend_c, 0, 8266
2, 466, Pitch_bend_c, 0, 8288
2, 467, Pitch_bend_c, 0, 8272
2, 468, Pitch_bend_c, 0, 8302
2, 469, Pitch_bend_c, 0, 8307
2, 470, Pitch_bend_c, 0, 8320
2, 471, Pitch_bend_c, 0, 8399
2, 472, Pitch_bend_c, 0, 8351
2, 473, Pitch_bend_c, 0, 8395
2, 474, Pitch_bend_c, 0, 8454
2, 475, Pitch_bend_c, 0, 8387
2, 476, Pitch_bend_c, 0, 8539
2, 477, Pitch_bend_c, 0, 8484
2, 478, Pitch_bend_c, 0, 8594
2, 480, Note_off_c, 0, 80, 102
2, 480, Note_on_c, 0, 80, 102
2, 480, Pitch_bend_c, 0, 8556
2, 481, Pitch_bend_c, 0, 8592
2, 482, Pitch_bend_c, 0, 8522
2, 483, Pitch_bend_c, 0, 8590
2, 484, Pitch_bend_c, 0, 8581
2, 485, Pitch_bend_c, 0, 8536
2, 486, Pitch_bend_c, 0, 8537
2, 487, Pitch_bend_c, 0, 8473
2, 488, Pitch_bend_c, 0, 8507
2, 489, Pitch_bend_c, 0, 8470
2, 490, Pitch_bend_c, 0, 8449
2, 491, Pitch_bend_c, 0, 8462
2, 492, Pitch_bend_c, 0, 8405
2, 493, Pitch_bend_c, 0, 8422
2, 494, Pitch_bend_c, 0, 8381
2, 495, Pitch_bend_c, 0, 8385
2, 496, Pitch_bend_c, 0, 8386
2, 497, Pitch_bend_c, 0, 8362
2, 498, Pitch_bend_c, 0, 8362
2, 499, Pitch_bend_c, 0, 8354
2, 500, Pitch_bend_c, 0, 8347
2, 501, Pitch_bend_c, 0, 8340
2, 502, Pitch_bend_c, 0, 8338
2, 503, Pitch_bend_c, 0, 8315
2, 504, Pitch_bend_c, 0, 8328
2, 505, Pitch_bend_c, 0, 8321
2, 506, Pitch_bend_c, 0, 8304
2, 507, Pitch_bend_c, 0, 8324
2, 508, Pitch_bend_c, 0, 8290
2, 509, Pitch_bend_c, 0, 8305
2, 510, Pitch_bend_c, 0, 8277
2, 511, Pitch_bend_c, 0, 8290
2, 512, Pitch_bend_c, 0, 8300
2, 513, Pitch_bend_c, 0, 8275
2, 514, Pitch_bend_c, 0, 8291
2, 515, Pitch_bend_c, 0, 8274
2, 516, Pitch_bend_c, 0, 8271
2, 517, Pitch_bend_c, 0, 8281
2, 518, Pitch_bend_c, 0, 8267
2, 519, Pitch_bend_c, 0, 8279
2, 520, Pitch_bend_c, 0, 8267
2, 521, Pitch_bend_c, 0, 8269
2, 522, Pitch_bend_c, 0, 8275
2, 523, Pitch_bend_c, 0, 8262
2, 524, Pitch_bend_c, 0, 8277
2, 525, Pitch_bend_c, 0, 8264
2, 526, Pitch_bend_c, 0, 8276
2, 527, Pitch_bend_c, 0, 8264
2, 528, Pitch_bend_c, 0, 8262
2, 529, Pitch_bend_c, 0, 8269
2, 530, Pitch_bend_c, 0, 8260
2, 531, Pitch_bend_c, 0, 8265
2, 532, Pitch_bend_c, 0, 8262
2, 533, Pitch_bend_c, 0, 8261
2, 534, Pitch_bend_c, 0, 8262
2, 535, Pitch_bend_c, 0, 8255
2, 536, Pitch_bend_c, 0, 8260
2, 537, Pitch_bend_c, 0, 8253
2, 538, Pitch_bend_c, 0, 8256
2, 539, Pitch_bend_c, 0, 8252
2, 540, Pitch_bend_c, 0, 8248
2, 541, Pitch_bend_c, 0, 8250
2, 542, Pitch_bend_c, 0, 8246
2, 543, Pitch_bend_c, 0, 8250
2, 544, Pitch_bend_c, 0, 8246
2, 545, Pitch_bend_c, 0, 8246
2, 546, Pitch_bend_c, 0, 8248
2, 547, Pitch_bend_c, 0, 8240
2, 548, Pitch_bend_c, 0, 8245
2, 549, Pitch_bend_c, 0, 8232
2, 550, Pitch_bend_c, 0, 8241
2, 551, Pitch_bend_c, 0, 8241
2, 552, Pitch_bend_c, 0, 8235
2, 553, Pitch_bend_c, 0, 8241
2, 554, Pitch_bend_c, 0, 8231
2, 555, Pitch_bend_c, 0, 8236
2, 556, Pitch_bend_c, 0, 8229
2, 557, Pitch_bend_c, 0, 8232
2, 558, Pitch_bend_c, 0, 8234
2, 559, Pitch_bend_c, 0, 8229
2, 560, Pitch_bend_c, 0, 8232
2, 561, Pitch_bend_c, 0, 8226
2, 562, Pitch_bend_c, 0, 8226
2, 563, Pitch_bend_c, 0, 8224
2, 564, Pitch_bend_c, 0, 8222
2, 565, Pitch_bend_c, 0, 8222
2, 566, Pitch_bend_c, 0, 8218
2, 567, Pitch_bend_c, 0, 8222
2, 568, Pitch_bend_c, 0, 8215
2, 569, Pitch_bend_c, 0, 8217
2, 570, Pitch_bend_c, 0, 8213
2, 571, Pitch_bend_c, 0, 8213
2, 572, Pitch_bend_c, 0, 8215
2, 573, Pitch_bend_c, 0, 8209
2, 574, Pitch_bend_c, 0, 8211
2, 575, Pitch_bend_c, 0, 8207
2, 576, Pitch_bend_c, 0, 8206
2, 577, Pitch_bend_c, 0, 8206
2, 578, Pitch_bend_c, 0, 8200
2, 579, Pitch_bend_c, 0, 8206
2, 580, Pitch_bend_c, 0, 8198
2, 581, Pitch_bend_c, 0, 8199
2, 582, Pitch_bend_c, 0, 8197
2, 583, Pitch_bend_c, 0, 8193
2, 584, Pitch_bend_c, 0, 8195
2, 585, Pitch_bend_c, 0, 8190
2, 586, Pitch_bend_c, 0, 8192
2, 587, Pitch_bend_c, 0, 8187
2, 588, Pitch_bend_c, 0, 8189
2, 589, Pitch_bend_c, 0, 8186
2, 590, Pitch_bend_c, 0, 8183
2, 591, Pitch_bend_c, 0, 8184
2, 592, Pitch_bend_c, 0, 8180
2, 593, Pitch_bend_c, 0, 8181
2, 594, Pitch_bend_c, 0, 8178
2, 595, Pitch_bend_c, 0, 8180
2, 596, Pitch_bend_c, 0, 8177
2, 597, Pitch_bend_c, 0, 8178
2, 598, Pitch_bend_c, 0, 8178
2, 599, Pitch_bend_c, 0, 8178
2, 600, Pitch_bend_c, 0, 8179
2, 601, Pitch_bend_c, 0, 8178
2, 602, Pitch_bend_c, 0, 8179
2, 603, Pitch_bend_c, 0, 8181
2, 604, Pitch_bend_c, 0, 8178
2, 605, Pitch_bend_c, 0, 8181
2, 606, Pitch_bend_c, 0, 8180
2, 607, Pitch_bend_c, 0, 8181
2, 608, Pitch_bend_c, 0, 8182
2, 609, Pitch_bend_c, 0, 8181
2, 610, Pitch_bend_c, 0, 8185
2, 611, Pitch_bend_c, 0, 8181
2, 612, Pitch_bend_c, 0, 8186
2, 613, Pitch_bend_c, 0, 8183
2, 614, Pitch_bend_c, 0, 8185
2, 615, Pitch_bend_c, 0, 8186
2, 616, Pitch_bend_c, 0, 8187
2, 617, Pitch_bend_c, 0, 8190
2, 618, Pitch_bend_c, 0, 8189
2, 619, Pitch_bend_c, 0, 8192
2, 620, Pitch_bend_c, 0, 8190
2, 621, Pitch_bend_c, 0, 8195
2, 622, Pitch_bend_c, 0, 8193
2, 623, Pitch_bend_c, 0, 8197
2, 624, Pitch_bend_c, 0, 8198
2, 625, Pitch_bend_c, 0, 8199
2, 626, Pitch_bend_c, 0, 8199
2, 627, Pitch_bend_c, 0, 8201
2, 628, Pitch_bend_c, 0, 8203
2, 629, Pitch_bend_c, 0, 8202
2, 630, Pitch_bend_c, 0, 8204
2, 631, Pitch_bend_c, 0, 8204
2, 632, Pitch_bend_c, 0, 8206
2, 633, Pitch_bend_c, 0, 8207
2, 634, Pitch_bend_c, 0, 8208
2, 635, Pitch_bend_c, 0, 8207
2, 636, Pitch_bend_c, 0, 8209
2, 637, Pitch_bend_c, 0, 8210
2, 638, Pitch_bend_c, 0, 8211
2, 639, Pitch_bend_c, 0, 8213
2, 640, Pitch_bend_c, 0, 8211
2, 641, Pitch_bend_c, 0, 8214
2, 642, Pitch_bend_c, 0, 8213
2, 643, Pitch_bend_c, 0, 8214
2, 644, Pitch_bend_c, 0, 8215
2, 645, Pitch_bend_c, 0, 8216
2, 646, Pitch_bend_c, 0, 8219
2, 647, Pitch_bend_c, 0, 8217
2, 648, Pitch_bend_c, 0, 8217
2, 649, Pitch_bend_c, 0, 8216
2, 650, Pitch_bend_c, 0, 8219
2, 651, Pitch_bend_c, 0, 8219
2, 652, Pitch_bend_c, 0, 8219
2, 653, Pitch_bend_c, 0, 8221
2, 654, Pitch_bend_c, 0, 8219
2, 655, Pitch_bend_c, 0, 8217
2, 656, Pitch_bend_c, 0, 8219
2, 657, Pitch_bend_c, 0, 8215
2, 658, Pitch_bend_c, 0, 8218
2, 659, Pitch_bend_c, 0, 8215
2, 660, Pitch_bend_c, 0, 8214
2, 661, Pitch_bend_c, 0, 8214
2, 662, Pitch_bend_c, 0, 8210
2, 663, Pitch_bend_c, 0, 8211
2, 664, Pitch_bend_c, 0, 8207
2, 665, Pitch_bend_c, 0, 8206
2, 666, Pitch_bend_c, 0, 8206
2, 667, Pitch_bend_c, 0, 8205
2, 668, Pitch_bend_c, 0, 8204
2, 669, Pitch_bend_c, 0, 8200
2, 670, Pitch_bend_c, 0, 8199
2, 671, Pitch_bend_c, 0, 8195
2, 672, Pitch_bend_c, 0, 8196
2, 673, Pitch_bend_c, 0, 8194
2, 674, Pitch_bend_c, 0, 8192
2, 675, Pitch_bend_c, 0, 8193
2, 676, Pitch_bend_c, 0, 8188
2, 677, Pitch_bend_c, 0, 8188
2, 678, Pitch_bend_c, 0, 8186
2, 679, Pitch_bend_c, 0, 8185
2, 680, Pitch_bend_c, 0, 8185
2, 681, Pitch_bend_c, 0, 8184
2, 682, Pitch_bend_c, 0, 8186
2, 683, Pitch_bend_c, 0, 8181
2, 684, Pitch_bend_c, 0, 8180
2, 685, Pitch_bend_c, 0, 8177
2, 686, Pitch_bend_c, 0, 8178
2, 687, Pitch_bend_c, 0, 8178
2, 688, Pitch_bend_c, 0, 8176
2, 689, Pitch_bend_c, 0, 8177
2, 690, Pitch_bend_c, 0, 8176
2, 691, Pitch_bend_c, 0, 8175
2, 692, Pitch_bend_c, 0, 8173
2, 693, Pitch_bend_c, 0, 8170
2, 694, Pitch_bend_c, 0, 8182
2, 695, Pitch_bend_c, 0, 8179
2, 696, Pitch_bend_c, 0, 8181
2, 697, Pitch_bend_c, 0, 8183
2, 698, Pitch_bend_c, 0, 8178
2, 699, Pitch_bend_c, 0, 8174
2, 700, Pitch_bend_c, 0, 8175
2, 701, Pitch_bend_c, 0, 8176
2, 702, Pitch_bend_c, 0, 8184
2, 703, Pitch_bend_c, 0, 8201
2, 704, Pitch_bend_c, 0, 8205
2, 705, Pitch_bend_c, 0, 8210
2, 706, Pitch_bend_c, 0, 8222
2, 707, Pitch_bend_c, 0, 8236
2, 708, Pitch_bend_c, 0, 8300
2, 709, Pitch_bend_c, 0, 8348
2, 710, Pitch_bend_c, 0, 8492
2, 711, Pitch_bend_c, 0, 8582
2, 712, Pitch_bend_c, 0, 8865
2, 713, Pitch_bend_c, 0, 9121
2, 714, Pitch_bend_c, 0, 9352
2, 715, Pitch_bend_c, 0, 10320
2, 716, Pitch_bend_c, 0, 10411
2, 717, Pitch_bend_c, 0, 11230
2, 718, Pitch_bend_c, 0, 11682
2, 720, Note_off_c, 0, 80, 102
2, 720, Note_on_c, 0, 83, 102
2, 720, Pitch_bend_c, 0, 7133
2, 721, Pitch_bend_c, 0, 7001
2, 722, Pitch_bend_c, 0, 7448
2, 723, Pitch_bend_c, 0, 7625
2, 724, Pitch_bend_c, 0, 7880
2, 725, Pitch_bend_c, 0, 7956
2, 726, Pitch_bend_c, 0, 8116
2, 727, Pitch_bend_c, 0, 8155
2, 728, Pitch_bend_c, 0, 8185
2, 729, Pitch_bend_c, 0, 8197
2, 730, Pitch_bend_c, 0, 8202
2, 731, Pitch_bend_c, 0, 8222
2, 732, Pitch_bend_c, 0, 8234
2, 733, Pitch_bend_c, 0, 8256
2, 734, Pitch_bend_c, 0, 8256
2, 735, Pitch_bend_c, 0, 8254
2, 736, Pitch_bend_c, 0, 8249
2, 737, Pitch_bend_c, 0, 8249
2, 738, Pitch_bend_c, 0, 8254
2, 739, Pitch_bend_c, 0, 8259
2, 740, Pitch_bend_c, 0, 8266
2, 741, Pitch_bend_c, 0, 8264
2, 742, Pitch_bend_c, 0, 8261
2, 743, Pitch_bend_c, 0, 8251
2, 744, Pitch_bend_c, 0, 8254
2, 745, Pitch_bend_c, 0, 8259
2, 746, Pitch_bend_c, 0, 8261
2, 747, Pitch_bend_c, 0, 8259
2, 748, Pitch_bend_c, 0, 8259
2, 749, Pitch_bend_c, 0, 8254
2, 750, Pitch_bend_c, 0, 8256
2, 751, Pitch_bend_c, 0, 8261
2, 752, Pitch_bend_c, 0, 8259
2, 753, Pitch_bend_c, 0, 8259
2, 754, Pitch_bend_c, 0, 8254
2, 755, Pitch_bend_c, 0, 8259
2, 756, Pitch_bend_c, 0, 8259
2, 757, Pitch_bend_c, 0, 8259
2, 758, Pitch_bend_c, 0, 8254
2, 759, Pitch_bend_c, 0, 8256
2, 760, Pitch_bend_c, 0, 8251
2, 761, Pitch_bend_c, 0, 8259
2, 762, Pitch_bend_c, 0, 8261
2, 763, Pitch_bend_c, 0, 8266
2, 764, Pitch_bend_c, 0, 8264
2, 765, Pitch_bend_c, 0, 8259
2, 766, Pitch_bend_c, 0, 8261
2, 767, Pitch_bend_c, 0, 8261
2, 768, Pitch_bend_c, 0, 8268
2, 769, Pitch_bend_c, 0, 8268
2, 770, Pitch_bend_c, 0, 8266
2, 771, Pitch_bend_c, 0, 8264
2, 772, Pitch_bend_c, 0, 8261
2, 773, Pitch_bend_c, 0, 8259
2, 774, Pitch_bend_c, 0, 8261
2, 775, Pitch_bend_c, 0, 8266
2, 776, Pitch_bend_c, 0, 8268
2, 777, Pitch_bend_c, 0, 8264
2, 778, Pitch_bend_c, 0, 8261
2, 779, Pitch_bend_c, 0, 8261
2, 780, Pitch_bend_c, 0, 8259
2, 781, Pitch_bend_c, 0, 8266
2, 782, Pitch_bend_c, 0, 8266
2, 783, Pitch_bend_c, 0, 8264
2, 784, Pitch_bend_c, 0, 8259
2, 785, Pitch_bend_c, 0, 8259
2, 786, Pitch_bend_c, 0, 8259
2, 787, Pitch_bend_c, 0, 8259
2, 788, Pitch_bend_c, 0, 8259
2, 789, Pitch_bend_c, 0, 8259
2, 790, Pitch_bend_c, 0, 8254
2, 791, Pitch_bend_c, 0, 8251
2, 792, Pitch_bend_c, 0, 8251
2, 793, Pitch_bend_c, 0, 8251
2, 794, Pitch_bend_c, 0, 8251
2, 795, Pitch_bend_c, 0, 8246
2, 796, Pitch_bend_c, 0, 8246
2, 797, Pitch_bend_c, 0, 8244
2, 798, Pitch_bend_c, 0, 8244
2, 799, Pitch_bend_c, 0, 8241
2, 800, Pitch_bend_c, 0, 8239
2, 801, Pitch_bend_c, 0, 8237
2, 802, Pitch_bend_c, 0, 8237
2, 803, Pitch_bend_c, 0, 8237
2, 804, Pitch_bend_c, 0, 8234
2, 805, Pitch_bend_c, 0, 8234
2, 806, Pitch_bend_c, 0, 8237
2, 807, Pitch_bend_c, 0, 8232
2, 808, Pitch_bend_c, 0, 8232
2, 809, Pitch_bend_c, 0, 8232
2, 810, Pitch_bend_c, 0, 8232
2, 811, Pitch_bend_c, 0, 8227
2, 812, Pitch_bend_c, 0, 8232
2, 813, Pitch_bend_c, 0, 8229
2, 814, Pitch_bend_c, 0, 8227
2, 815, Pitch_bend_c, 0, 8227
2, 816, Pitch_bend_c, 0, 8227
2, 817, Pitch_bend_c, 0, 8224
2, 818, Pitch_bend_c, 0, 8224
2, 819, Pitch_bend_c, 0, 8227
2, 820, Pitch_bend_c, 0, 8224
2, 821, Pitch_bend_c, 0, 8224
2, 822, Pitch_bend_c, 0, 8224
2, 823, Pitch_bend_c, 0, 8227
2, 824, Pitch_bend_c, 0, 8227
2, 825, Pitch_bend_c, 0, 8224
2, 826, Pitch_bend_c, 0, 8222
2, 827, Pitch_bend_c, 0, 8222
2, 828, Pitch_bend_c, 0, 8222
2, 829, Pitch_bend_c, 0, 8222
2, 830, Pitch_bend_c, 0, 8222
2, 831, Pitch_bend_c, 0, 8224
2, 832, Pitch_bend_c, 0, 8219
2, 833, Pitch_bend_c, 0, 8222
2, 834, Pitch_bend_c, 0, 8222
2, 835, Pitch_bend_c, 0, 8224
2, 836, Pitch_bend_c, 0, 8222
2, 837, Pitch_bend_c, 0, 8219
2, 838, Pitch_bend_c, 0, 8217
2, 839, Pitch_bend_c, 0, 8217
2, 840, Pitch_bend_c, 0, 8214
2, 841, Pitch_bend_c, 0, 8217
2, 842, Pitch_bend_c, 0, 8217
2, 843, Pitch_bend_c, 0, 8217
2, 844, Pitch_bend_c, 0, 8212
2, 845, Pitch_bend_c, 0, 8212
2, 846, Pitch_bend_c, 0, 8217
2, 847, Pitch_bend_c, 0, 8217
2, 848, Pitch_bend_c, 0, 8219
2, 849, Pitch_bend_c, 0, 8217
2, 850, Pitch_bend_c, 0, 8210
2, 851, Pitch_bend_c, 0, 8210
2, 852, Pitch_bend_c, 0, 8212
2, 853, Pitch_bend_c, 0, 8222
2, 854, Pitch_bend_c, 0, 8222
2, 855, Pitch_bend_c, 0, 8212
2, 856, Pitch_bend_c, 0, 8210
2, 857, Pitch_bend_c, 0, 8214
2, 858, Pitch_bend_c, 0, 8224
2, 859, Pitch_bend_c, 0, 8229
2, 860, Pitch_bend_c, 0, 8229
2, 861, Pitch_bend_c, 0, 8222
2, 862, Pitch_bend_c, 0, 8217
2, 863, Pitch_bend_c, 0, 8217
2, 864, Pitch_bend_c, 0, 8232
2, 865, Pitch_bend_c, 0, 8234
2, 866, Pitch_bend_c, 0, 8232
2, 867, Pitch_bend_c, 0, 8224
2, 868, Pitch_bend_c, 0, 8224
2, 869, Pitch_bend_c, 0, 8224
2, 870, Pitch_bend_c, 0, 8232
2, 871, Pitch_bend_c, 0, 8237
2, 872, Pitch_bend_c, 0, 8239
2, 873, Pitch_bend_c, 0, 8224
2, 874, Pitch_bend_c, 0, 8224
2, 875, Pitch_bend_c, 0, 8222
2, 876, Pitch_bend_c, 0, 8237
2, 877, Pitch_bend_c, 0, 8239
2, 878, Pitch_bend_c, 0, 8237
2, 879, Pitch_bend_c, 0, 8229
2, 880, Pitch_bend_c, 0, 8222
2, 881, Pitch_bend_c, 0, 8222
2, 882, Pitch_bend_c, 0, 8237
2, 883, Pitch_bend_c, 0, 8239
2, 884, Pitch_bend_c, 0, 8237
2, 885, Pitch_bend_c, 0, 8227
2, 886, Pitch_bend_c, 0, 8217
2, 887, Pitch_bend_c, 0, 8224
2, 888, Pitch_bend_c, 0, 8227
2, 889, Pitch_bend_c, 0, 8234
2, 890, Pitch_bend_c, 0, 8229
2, 891, Pitch_bend_c, 0, 8227
2, 892, Pitch_bend_c, 0, 8214
2, 893, Pitch_bend_c, 0, 8214
2, 894, Pitch_bend_c, 0, 8222
2, 895, Pitch_bend_c, 0, 8227
2, 896, Pitch_bend_c, 0, 8224
2, 897, Pitch_bend_c, 0, 8217
2, 898, Pitch_bend_c, 0, 8207
2, 899, Pitch_bend_c, 0, 8207
2, 900, Pitch_bend_c, 0, 8212
2, 901, Pitch_bend_c, 0, 8219
2, 902, Pitch_bend_c, 0, 8222
2, 903, Pitch_bend_c, 0, 8212
2, 904, Pitch_bend_c, 0, 8207
2, 905, Pitch_bend_c, 0, 8202
2, 906, Pitch_bend_c, 0, 8205
2, 907, Pitch_bend_c, 0, 8212
2, 908, Pitch_bend_c, 0, 8214
2, 909, Pitch_bend_c, 0, 8214
2, 910, Pitch_bend_c, 0, 8200
2, 911, Pitch_bend_c, 0, 8197
2, 912, Pitch_bend_c, 0, 8197
2, 913, Pitch_bend_c, 0, 8202
2, 914, Pitch_bend_c, 0, 8210
2, 915, Pitch_bend_c, 0, 8207
2, 916, Pitch_bend_c, 0, 8197
2, 917, Pitch_bend_c, 0, 8185
2, 918, Pitch_bend_c, 0, 8187
2, 919, Pitch_bend_c, 0, 8195
2, 920, Pitch_bend_c, 0, 8200
2, 921, Pitch_bend_c, 0, 8195
2, 922, Pitch_bend_c, 0, 8190
2, 923, Pitch_bend_c, 0, 8178
2, 924, Pitch_bend_c, 0, 8178
2, 925, Pitch_bend_c, 0, 8182
2, 926, Pitch_bend_c, 0, 8200
2, 927, Pitch_bend_c, 0, 8195
2, 928, Pitch_bend_c, 0, 8180
2, 929, Pitch_bend_c, 0, 8173
2, 930, Pitch_bend_c, 0, 8165
2, 931, Pitch_bend_c, 0, 8175
2, 932, Pitch_bend_c, 0, 8185
2, 933, Pitch_bend_c, 0, 8185
2, 934, Pitch_bend_c, 0, 8173
2, 935, Pitch_bend_c, 0, 8170
2, 936, Pitch_bend_c, 0, 8175
2, 937, Pitch_bend_c, 0, 8173
2, 938, Pitch_bend_c, 0, 8178
2, 939, Pitch_bend_c, 0, 8173
2, 940, Pitch_bend_c, 0, 8180
2, 941, Pitch_bend_c, 0, 8197
2, 942, Pitch_bend_c, 0, 8276
2, 943, Pitch_bend_c, 0, 8342
2, 944, Pitch_bend_c, 0, 8477
2, 945, Pitch_bend_c, 0, 8568
2, 946, Pitch_bend_c, 0, 8681
2, 947, Pitch_bend_c, 0, 8998
2, 948, Pitch_bend_c, 0, 9185
2, 949, Pitch_bend_c, 0, 9591
2, 950, Pitch_bend_c, 0, 9785
2, 951, Pitch_bend_c, 0, 10148
2, 952, Pitch_bend_c, 0, 10293
2, 953, Pitch_bend_c, 0, 10483
2, 954, Pitch_bend_c, 0, 10770
2, 955, Pitch_bend_c, 0, 10927
2, 956, Pitch_bend_c, 0, 11207
2, 957, Pitch_bend_c, 0, 11303
2, 958, Pitch_bend_c, 0, 11524
2, 960, Note_off_c, 0, 83, 102
2, 960, Note_on_c, 0, 85, 102
2, 960, Pitch_bend_c, 0, 7721
2, 961, Pitch_bend_c, 0, 7822
2, 962, Pitch_bend_c, 0, 7871
2, 963, Pitch_bend_c, 0, 7984
2, 964, Pitch_bend_c, 0, 8026
2, 965, Pitch_bend_c, 0, 8107
2, 966, Pitch_bend_c, 0, 8146
2, 967, Pitch_bend_c, 0, 8208
2, 968, Pitch_bend_c, 0, 8210
2, 969, Pitch_bend_c, 0, 8193
2, 970, Pitch_bend_c, 0, 8171
2, 971, Pitch_bend_c, 0, 8176
2, 972, Pitch_bend_c, 0, 8193
2, 973, Pitch_bend_c, 0, 8205
2, 974, Pitch_bend_c, 0, 8235
2, 975, Pitch_bend_c, 0, 8232
2, 976, Pitch_bend_c, 0, 8213
2, 977, Pitch_bend_c, 0, 8176
2, 978, Pitch_bend_c, 0, 8156
2, 979, Pitch_bend_c, 0, 8149
2, 980, Pitch_bend_c, 0, 8149
2, 981, Pitch_bend_c, 0, 8156
2, 982, Pitch_bend_c, 0, 8151
2, 983, Pitch_bend_c, 0, 8134
2, 984, Pitch_bend_c, 0, 8127
2, 985, Pitch_bend_c, 0, 8110
2, 986, Pitch_bend_c, 0, 8095
2, 987, Pitch_bend_c, 0, 8095
2, 988, Pitch_bend_c, 0, 8085
2, 989, Pitch_bend_c, 0, 8083
2, 990, Pitch_bend_c, 0, 8073
2, 991, Pitch_bend_c, 0, 8080
2, 992, Pitch_bend_c, 0, 8068
2, 993, Pitch_bend_c, 0, 8065
2, 994, Pitch_bend_c, 0, 8063
2, 995, Pitch_bend_c, 0, 8056
2, 996, Pitch_bend_c, 0, 8048
2, 997, Pitch_bend_c, 0, 8038
2, 998, Pitch_bend_c, 0, 8041
2, 999, Pitch_bend_c, 0, 8033
2, 1000, Pitch_bend_c, 0, 8036
2, 1001, Pitch_bend_c, 0, 8048
2, 1002, Pitch_bend_c, 0, 8051
2, 1003, Pitch_bend_c, 0, 8043
2, 1004, Pitch_bend_c, 0, 8038
2, 1005, Pitch_bend_c, 0, 8036
2, 1006, Pitch_bend_c, 0, 8026
2, 1007, Pitch_bend_c, 0, 8028
2, 1008, Pitch_bend_c, 0, 8038
2, 1009, Pitch_bend_c, 0, 8051
2, 1010, Pitch_bend_c, 0, 8053
2, 1011, Pitch_bend_c, 0, 8060
2, 1012, Pitch_bend_c, 0, 8058
2, 1013, Pitch_bend_c, 0, 8048
2, 1014, Pitch_bend_c, 0, 8046
2, 1015, Pitch_bend_c, 0, 8053
2, 1016, Pitch_bend_c, 0, 8056
2, 1017, Pitch_bend_c, 0, 8060
2, 1018, Pitch_bend_c, 0, 8075
2, 1019, Pitch_bend_c, 0, 8078
2, 1020, Pitch_bend_c, 0, 8075
2, 1021, Pitch_bend_c, 0, 8073
2, 1022, Pitch_bend_c, 0, 8075
2, 1023, Pitch_bend_c, 0, 8070
2, 1024, Pitch_bend_c, 0, 8073
2, 1025, Pitch_bend_c, 0, 8083
2, 1026, Pitch_bend_c, 0, 8092
2, 1027, Pitch_bend_c, 0, 8092
2, 1028, Pitch_bend_c, 0, 8095
2, 1029, Pitch_bend_c, 0, 8097
2, 1030, Pitch_bend_c, 0, 8092
2, 1031, Pitch_bend_c, 0, 8090
2, 1032, Pitch_bend_c, 0, 8097
2, 1033, Pitch_bend_c, 0, 8097
2, 1034, Pitch_bend_c, 0, 8102
2, 1035, Pitch_bend_c, 0, 8105
2, 1036, Pitch_bend_c, 0, 8112
2, 1037, Pitch_bend_c, 0, 8110
2, 1038, Pitch_bend_c, 0, 8110
2, 1039, Pitch_bend_c, 0, 8110
2, 1040, Pitch_bend_c, 0, 8107
2, 1041, Pitch_bend_c, 0, 8107
2, 1042, Pitch_bend_c, 0, 8115
2, 1043, Pitch_bend_c, 0, 8119
2, 1044, Pitch_bend_c, 0, 8117
2, 1045, Pitch_bend_c, 0, 8119
2, 1046, Pitch_bend_c, 0, 8122
2, 1047, Pitch_bend_c, 0, 8112
2, 1048, Pitch_bend_c, 0, 8112
2, 1049, Pitch_bend_c, 0, 8115
2, 1050, Pitch_bend_c, 0, 8119
2, 1051, Pitch_bend_c, 0, 8115
2, 1052, Pitch_bend_c, 0, 8124
2, 1053, Pitch_bend_c, 0, 8129
2, 1054, Pitch_bend_c, 0, 8119
2, 1055, Pitch_bend_c, 0, 8119
2, 1056, Pitch_bend_c, 0, 8122
2, 1057, Pitch_bend_c, 0, 8122
2, 1058, Pitch_bend_c, 0, 8119
2, 1059, Pitch_bend_c, 0, 8137
2, 1060, Pitch_bend_c, 0, 8144
2, 1061, Pitch_bend_c, 0, 8142
2, 1062, Pitch_bend_c, 0, 8142
2, 1063, Pitch_bend_c, 0, 8144
2, 1064, Pitch_bend_c, 0, 8137
2, 1065, Pitch_bend_c, 0, 8139
2, 1066, Pitch_bend_c, 0, 8156
2, 1067, Pitch_bend_c, 0, 8161
2, 1068, Pitch_bend_c, 0, 8159
2, 1069, Pitch_bend_c, 0, 8166
2, 1070, Pitch_bend_c, 0, 8166
2, 1071, Pitch_bend_c, 0, 8161
2, 1072, Pitch_bend_c, 0, 8154
2, 1073, Pitch_bend_c, 0, 8173
2, 1074, Pitch_bend_c, 0, 8176
2, 1075, Pitch_bend_c, 0, 8181
2, 1076, Pitch_bend_c, 0, 8191
2, 1077, Pitch_bend_c, 0, 8203
2, 1078, Pitch_bend_c, 0, 8196
2, 1079, Pitch_bend_c, 0, 8191
2, 1080, Pitch_bend_c, 0, 8198
2, 1081, Pitch_bend_c, 0, 8203
2, 1082, Pitch_bend_c, 0, 8203
2, 1083, Pitch_bend_c, 0, 8220
2, 1084, Pitch_bend_c, 0, 8232
2, 1085, Pitch_bend_c, 0, 8232
2, 1086, Pitch_bend_c, 0, 8230
2, 1087, Pitch_bend_c, 0, 8235
2, 1088, Pitch_bend_c, 0, 8232
2, 1089, Pitch_bend_c, 0, 8230
2, 1090, Pitch_bend_c, 0, 8240
2, 1091, Pitch_bend_c, 0, 8257
2, 1092, Pitch_bend_c, 0, 8257
2, 1093, Pitch_bend_c, 0, 8255
2, 1094, Pitch_bend_c, 0, 8262
2, 1095, Pitch_bend_c, 0, 8259
2, 1096, Pitch_bend_c, 0, 8252
2, 1097, Pitch_bend_c, 0, 8262
2, 1098, Pitch_bend_c, 0, 8274
2, 1099, Pitch_bend_c, 0, 8274
2, 1100, Pitch_bend_c, 0, 8277
2, 1101, Pitch_bend_c, 0, 8287
2, 1102, Pitch_bend_c, 0, 8284
2, 1103, Pitch_bend_c, 0, 8277
2, 1104, Pitch_bend_c, 0, 8282
2, 1105, Pitch_bend_c, 0, 8284
2, 1106, Pitch_bend_c, 0, 8287
2, 1107, Pitch_bend_c, 0, 8301
2, 1108, Pitch_bend_c, 0, 8304
2, 1109, Pitch_bend_c, 0, 8301
2, 1110, Pitch_bend_c, 0, 8294
2, 1111, Pitch_bend_c, 0, 8296
2, 1112, Pitch_bend_c, 0, 8294
2, 1113, Pitch_bend_c, 0, 8289
2, 1114, Pitch_bend_c, 0, 8306
2, 1115, Pitch_bend_c, 0, 8306
2, 1116, Pitch_bend_c, 0, 8306
2, 1117, Pitch_bend_c, 0, 8301
2, 1118, Pitch_bend_c, 0, 8304
2, 1119, Pitch_bend_c, 0, 8289
2, 1120, Pitch_bend_c, 0, 8289
2, 1121, Pitch_bend_c, 0, 8294
2, 1122, Pitch_bend_c, 0, 8296
2, 1123, Pitch_bend_c, 0, 8299
2, 1124, Pitch_bend_c, 0, 8299
2, 1125, Pitch_bend_c, 0, 8296
2, 1126, Pitch_bend_c, 0, 8284
2, 1127, Pitch_bend_c, 0, 8282
2, 1128, Pitch_bend_c, 0, 8284
2, 1129, Pitch_bend_c, 0, 8282
2, 1130, Pitch_bend_c, 0, 8287
2, 1131, Pitch_bend_c, 0, 8291
2, 1132, Pitch_bend_c, 0, 8289
2, 1133, Pitch_bend_c, 0, 8277
2, 1134, Pitch_bend_c, 0, 8277
2, 1135, Pitch_bend_c, 0, 8272
2, 1136, Pitch_bend_c, 0, 8269
2, 1137, Pitch_bend_c, 0, 8279
2, 1138, Pitch_bend_c, 0, 8282
2, 1139, Pitch_bend_c, 0, 8282
2, 1140, Pitch_bend_c, 0, 8272
2, 1141, Pitch_bend_c, 0, 8269
2, 1142, Pitch_bend_c, 0, 8262
2, 1143, Pitch_bend_c, 0, 8255
2, 1144, Pitch_bend_c, 0, 8264
2, 1145, Pitch_bend_c, 0, 8269
2, 1146, Pitch_bend_c, 0, 8269
2, 1147, Pitch_bend_c, 0, 8259
2, 1148, Pitch_bend_c, 0, 8259
2, 1149, Pitch_bend_c, 0, 8247
2, 1150, Pitch_bend_c, 0, 8240
2, 1151, Pitch_bend_c, 0, 8247
2, 1152, Pitch_bend_c, 0, 8250
2, 1153, Pitch_bend_c, 0, 8247
2, 1154, Pitch_bend_c, 0, 8245
2, 1155, Pitch_bend_c, 0, 8247
2, 1156, Pitch_bend_c, 0, 8237
2, 1157, Pitch_bend_c, 0, 8232
2, 1158, Pitch_bend_c, 0, 8232
2, 1159, Pitch_bend_c, 0, 8235
2, 1160, Pitch_bend_c, 0, 8228
2, 1161, Pitch_bend_c, 0, 8232
2, 1162, Pitch_bend_c, 0, 8232
2, 1163, Pitch_bend_c, 0, 8223
2, 1164, Pitch_bend_c, 0, 8215
2, 1165, Pitch_bend_c, 0, 8220
2, 1166, Pitch_bend_c, 0, 8215
2, 1167, Pitch_bend_c, 0, 8213
2, 1168, Pitch_bend_c, 0, 8213
2, 1169, Pitch_bend_c, 0, 8208
2, 1170, Pitch_bend_c, 0, 8203
2, 1171, Pitch_bend_c, 0, 8210
2, 1172, Pitch_bend_c, 0, 8232
2, 1173, Pitch_bend_c, 0, 8237
2, 1174, Pitch_bend_c, 0, 8257
2, 1175, Pitch_bend_c, 0, 8269
2, 1176, Pitch_bend_c, 0, 8289
2, 1177, Pitch_bend_c, 0, 8294
2, 1178, Pitch_bend_c, 0, 8306
2, 1179, Pitch_bend_c, 0, 8328
2, 1180, Pitch_bend_c, 0, 8333
2, 1181, Pitch_bend_c, 0, 8355
2, 1182, Pitch_bend_c, 0, 8370
2, 1183, Pitch_bend_c, 0, 8392
2, 1184, Pitch_bend_c, 0, 8402
2, 1185, Pitch_bend_c, 0, 8417
2, 1186, Pitch_bend_c, 0, 8451
2, 1187, Pitch_bend_c, 0, 8461
2, 1188, Pitch_bend_c, 0, 8490
2, 1189, Pitch_bend_c, 0, 8510
2, 1190, Pitch_bend_c, 0, 8547
2, 1191, Pitch_bend_c, 0, 8564
2, 1192, Pitch_bend_c, 0, 8623
2, 1193, Pitch_bend_c, 0, 8645
2, 1194, Pitch_bend_c, 0, 8660
2, 1195, Pitch_bend_c, 0, 8702
2, 1196, Pitch_bend_c, 0, 8726
2, 1197, Pitch_bend_c, 0, 8773
2, 1198, Pitch_bend_c, 0, 8807
2, 1199, Pitch_bend_c, 0, 8879
2, 1200, Pitch_bend_c, 0, 8908
2, 1201, Pitch_bend_c, 0, 8930
2, 1202, Pitch_bend_c, 0, 8992
2, 1203, Pitch_bend_c, 0, 9009
2, 1204, Pitch_bend_c, 0, 9061
2, 1205, Pitch_bend_c, 0, 9085
2, 1206, Pitch_bend_c, 0, 9137
2, 1207, Pitch_bend_c, 0, 9161
2, 1208, Pitch_bend_c, 0, 9188
2, 1209, Pitch_bend_c, 0, 9245
2, 1210, Pitch_bend_c, 0, 9274
2, 1211, Pitch_bend_c, 0, 9331
2, 1212, Pitch_bend_c, 0, 9355
2, 1213, Pitch_bend_c, 0, 9424
2, 1214, Pitch_bend_c, 0, 9456
2, 1215, Pitch_bend_c, 0, 9530
2, 1216, Pitch_bend_c, 0, 9562
2, 1217, Pitch_bend_c, 0, 9591
2, 1218, Pitch_bend_c, 0, 9638
2, 1219, Pitch_bend_c, 0, 9668
2, 1220, Pitch_bend_c, 0, 9744
2, 1221, Pitch_bend_c, 0, 9778
2, 1222, Pitch_bend_c, 0, 9849
2, 1223, Pitch_bend_c, 0, 9881
2, 1224, Pitch_bend_c, 0, 9906
2, 1225, Pitch_bend_c, 0, 9972
2, 1226, Pitch_bend_c, 0, 10012
2, 1227, Pitch_bend_c, 0, 10088
2, 1228, Pitch_bend_c, 0, 10125
2, 1229, Pitch_bend_c, 0, 10196
2, 1230, Pitch_bend_c, 0, 10225
2, 1231, Pitch_bend_c, 0, 10255
2, 1232, Pitch_bend_c, 0, 10319
2, 1233, Pitch_bend_c, 0, 10353
2, 1234, Pitch_bend_c, 0, 10434
2, 1235, Pitch_bend_c, 0, 10471
2, 1236, Pitch_bend_c, 0, 10530
2, 1237, Pitch_bend_c, 0, 10557
2, 1238, Pitch_bend_c, 0, 10638
2, 1239, Pitch_bend_c, 0, 10675
2, 1240, Pitch_bend_c, 0, 10707
2, 1241, Pitch_bend_c, 0, 10761
2, 1242, Pitch_bend_c, 0, 10783
2, 1243, Pitch_bend_c, 0, 10845
2, 1244, Pitch_bend_c, 0, 10884
2, 1245, Pitch_bend_c, 0, 10950
2, 1246, Pitch_bend_c, 0, 10975
2, 1247, Pitch_bend_c, 0, 11002
2, 1248, Pitch_bend_c, 0, 11058
2, 1249, Pitch_bend_c, 0, 11080
2, 1250, Pitch_bend_c, 0, 11144
2, 1251, Pitch_bend_c, 0, 11171
2, 1252, Pitch_bend_c, 0, 11230
2, 1253, Pitch_bend_c, 0, 11252
2, 1254, Pitch_bend_c, 0, 11309
2, 1255, Pitch_bend_c, 0, 11341
2, 1256, Pitch_bend_c, 0, 11366
2, 1257, Pitch_bend_c, 0, 11385
2, 1258, Pitch_bend_c, 0, 11390
2, 1259, Pitch_bend_c, 0, 11422
2, 1260, Pitch_bend_c, 0, 11452
2, 1261, Pitch_bend_c, 0, 11488
2, 1262, Pitch_bend_c, 0, 11506
2, 1263, Pitch_bend_c, 0, 11533
2, 1264, Pitch_bend_c, 0, 11596
2, 1265, Pitch_bend_c, 0, 11621
2, 1266, Pitch_bend_c, 0, 11646
2, 1267, Pitch_bend_c, 0, 11665
2, 1268, Pitch_bend_c, 0, 11705
2, 1269, Pitch_bend_c, 0, 11724
2, 1270, Pitch_bend_c, 0, 11749
2, 1271, Pitch_bend_c, 0, 11800
2, 1272, Pitch_bend_c, 0, 11830
2, 1273, Pitch_bend_c, 0, 11882
2, 1274, Pitch_bend_c, 0, 11911
2, 1275, Pitch_bend_c, 0, 11955
2, 1276, Pitch_bend_c, 0, 11975
2, 1277, Pitch_bend_c, 0, 12029
2, 1278, Pitch_bend_c, 0, 12056
2, 1279, Pitch_bend_c, 0, 12083
2, 1280, Pitch_bend_c, 0, 12117
2, 1281, Pitch_bend_c, 0, 12147
2, 1282, Pitch_bend_c, 0, 12223
2, 1283, Pitch_bend_c, 0, 12248
2, 1284, Pitch_bend_c, 0, 12285
2, 1285, Pitch_bend_c, 0, 12304
2, 1286, Pitch_bend_c, 0, 12334
2, 1287, Pitch_bend_c, 0, 12366
2, 1288, Pitch_bend_c, 0, 12395
2, 1289, Pitch_bend_c, 0, 12484
2, 1290, Pitch_bend_c, 0, 12520
2, 1291, Pitch_bend_c, 0, 12575
2, 1292, Pitch_bend_c, 0, 12602
2, 1293, Pitch_bend_c, 0, 12631
2, 1294, Pitch_bend_c, 0, 12665
2, 1295, Pitch_bend_c, 0, 12685
2, 1296, Pitch_bend_c, 0, 12732
2, 1297, Pitch_bend_c, 0, 12751
2, 1298, Pitch_bend_c, 0, 12803
2, 1299, Pitch_bend_c, 0, 12830
2, 1300, Pitch_bend_c, 0, 12879
2, 1301, Pitch_bend_c, 0, 12909
2, 1302, Pitch_bend_c, 0, 12936
2, 1303, Pitch_bend_c, 0, 12968
2, 1304, Pitch_bend_c, 0, 12978
2, 1305, Pitch_bend_c, 0, 13024
2, 1306, Pitch_bend_c, 0, 13046
2, 1307, Pitch_bend_c, 0, 13059
2, 1308, Pitch_bend_c, 0, 13073
2, 1309, Pitch_bend_c, 0, 13091
2, 1310, Pitch_bend_c, 0, 13110
2, 1311, Pitch_bend_c, 0, 13122
2, 1312, Pitch_bend_c, 0, 13199
2, 1313, Pitch_bend_c, 0, 13218
2, 1314, Pitch_bend_c, 0, 13240
2, 1315, Pitch_bend_c, 0, 13258
2, 1316, Pitch_bend_c, 0, 13290
2, 1317, Pitch_bend_c, 0, 13299
2, 1318, Pitch_bend_c, 0, 13317
2, 1319, Pitch_bend_c, 0, 13363
2, 1320, Pitch_bend_c, 0, 13366
2, 1321, Pitch_bend_c, 0, 13380
2, 1322, Pitch_bend_c, 0, 13395
2, 1323, Pitch_bend_c, 0, 13432
2, 1324, Pitch_bend_c, 0, 13452
2, 1325, Pitch_bend_c, 0, 13471
2, 1326, Pitch_bend_c, 0, 13508
2, 1327, Pitch_bend_c, 0, 13523
2, 1328, Pitch_bend_c, 0, 13548
2, 1329, Pitch_bend_c, 0, 13565
2, 1330, Pitch_bend_c, 0, 13607
2, 1331, Pitch_bend_c, 0, 13626
2, 1332, Pitch_bend_c, 0, 13643
2, 1333, Pitch_bend_c, 0, 13670
2, 1334, Pitch_bend_c, 0, 13670
2, 1335, Pitch_bend_c, 0, 13670
2, 1336, Pitch_bend_c, 0, 13690
2, 1337, Pitch_bend_c, 0, 13742
2, 1338, Pitch_bend_c, 0, 13752
2, 1339, Pitch_bend_c, 0, 13793
2, 1340, Pitch_bend_c, 0, 13808
2, 1341, Pitch_bend_c, 0, 13818
2, 1342, Pitch_bend_c, 0, 13850
2, 1343, Pitch_bend_c, 0, 13874
2, 1344, Pitch_bend_c, 0, 13862
2, 1345, Pitch_bend_c, 0, 13877
2, 1346, Pitch_bend_c, 0, 13914
2, 1347, Pitch_bend_c, 0, 13924
2, 1348, Pitch_bend_c, 0, 13931
2, 1349, Pitch_bend_c, 0, 13970
2, 1350, Pitch_bend_c, 0, 13965
2, 1351, Pitch_bend_c, 0, 13987
2, 1352, Pitch_bend_c, 0, 14005
2, 1353, Pitch_bend_c, 0, 14019
2, 1354, Pitch_bend_c, 0, 14032
2, 1355, Pitch_bend_c, 0, 14059
2, 1356, Pitch_bend_c, 0, 14076
2, 1357, Pitch_bend_c, 0, 14073
2, 1358, Pitch_bend_c, 0, 14076
2, 1359, Pitch_bend_c, 0, 14073
2, 1360, Pitch_bend_c, 0, 14108
2, 1361, Pitch_bend_c, 0, 14130
2, 1362, Pitch_bend_c, 0, 14123
2, 1363, Pitch_bend_c, 0, 14125
2, 1364, Pitch_bend_c, 0, 14137
2, 1365, Pitch_bend_c, 0, 14172
2, 1366, Pitch_bend_c, 0, 14186
2, 1367, Pitch_bend_c, 0, 14209
2, 1368, Pitch_bend_c, 0, 14214
2, 1369, Pitch_bend_c, 0, 14228
2, 1370, Pitch_bend_c, 0, 14243
2, 1371, Pitch_bend_c, 0, 14245
2, 1372, Pitch_bend_c, 0, 14241
2, 1373, Pitch_bend_c, 0, 14250
2, 1374, Pitch_bend_c, 0, 14285
2, 1375, Pitch_bend_c, 0, 14302
2, 1376, Pitch_bend_c, 0, 14304
2, 1377, Pitch_bend_c, 0, 14295
2, 1378, Pitch_bend_c, 0, 14302
2, 1379, Pitch_bend_c, 0, 14309
2, 1380, Pitch_bend_c, 0, 14322
2, 1381, Pitch_bend_c, 0, 14336
2, 1382, Pitch_bend_c, 0, 14354
2, 1383, Pitch_bend_c, 0, 14386
2, 1384, Pitch_bend_c, 0, 14393
2, 1385, Pitch_bend_c, 0, 14376
2, 1386, Pitch_bend_c, 0, 14376
2, 1387, Pitch_bend_c, 0, 14381
2, 1388, Pitch_bend_c, 0, 14413
2, 1389, Pitch_bend_c, 0, 14430
2, 1390, Pitch_bend_c, 0, 14454
2, 1391, Pitch_bend_c, 0, 14462
2, 1392, Pitch_bend_c, 0, 14472
2, 1393, Pitch_bend_c, 0, 14472
2, 1394, Pitch_bend_c, 0, 14474
2, 1395, Pitch_bend_c, 0, 14503
2, 1396, Pitch_bend_c, 0, 14501
2, 1397, Pitch_bend_c, 0, 14501
2, 1398, Pitch_bend_c, 0, 14511
2, 1399, Pitch_bend_c, 0, 14548
2, 1400, Pitch_bend_c, 0, 14572
2, 1401, Pitch_bend_c, 0, 14560
2, 1402, Pitch_bend_c, 0, 14548
2, 1403, Pitch_bend_c, 0, 14560
2, 1404, Pitch_bend_c, 0, 14609
2, 1405, Pitch_bend_c, 0, 14609
2, 1406, Pitch_bend_c, 0, 14553
2, 1407, Pitch_bend_c, 0, 14501
2, 1408, Pitch_bend_c, 0, 14445
2, 1409, Pitch_bend_c, 0, 14415
2, 1410, Pitch_bend_c, 0, 14381
2, 1411, Pitch_bend_c, 0, 14307
2, 1412, Pitch_bend_c, 0, 14255
2, 1413, Pitch_bend_c, 0, 14162
2, 1414, Pitch_bend_c, 0, 14108
2, 1415, Pitch_bend_c, 0, 14007
2, 1416, Pitch_bend_c, 0, 13968
2, 1417, Pitch_bend_c, 0, 13956
2, 1418, Pitch_bend_c, 0, 13906
2, 1419, Pitch_bend_c, 0, 13865
2, 1420, Pitch_bend_c, 0, 13793
2, 1421, Pitch_bend_c, 0, 13749
2, 1422, Pitch_bend_c, 0, 13668
2, 1423, Pitch_bend_c, 0, 13639
2, 1424, Pitch_bend_c, 0, 13540
2, 1425, Pitch_bend_c, 0, 13506
2, 1426, Pitch_bend_c, 0, 13457
2, 1427, Pitch_bend_c, 0, 13324
2, 1428, Pitch_bend_c, 0, 13314
2, 1429, Pitch_bend_c, 0, 13280
2, 1430, Pitch_bend_c, 0, 13263
2, 1431, Pitch_bend_c, 0, 13243
2, 1432, Pitch_bend_c, 0, 13221
2, 1433, Pitch_bend_c, 0, 13272
2, 1434, Pitch_bend_c, 0, 13368
2, 1435, Pitch_bend_c, 0, 13363
2, 1436, Pitch_bend_c, 0, 13398
2, 1437, Pitch_bend_c, 0, 13425
2, 1438, Pitch_bend_c, 0, 13629
2, 1440, Note_off_c, 0, 85, 102
2, 1440, Note_on_c, 0, 88, 102
2, 1440, Pitch_bend_c, 0, 7712
2, 1441, Pitch_bend_c, 0, 7746
2, 1442, Pitch_bend_c, 0, 7780
2, 1443, Pitch_bend_c, 0, 7928
2, 1444, Pitch_bend_c, 0, 7967
2, 1445, Pitch_bend_c, 0, 8033
2, 1446, Pitch_bend_c, 0, 8078
2, 1447, Pitch_bend_c, 0, 8127
2, 1448, Pitch_bend_c, 0, 8161
2, 1449, Pitch_bend_c, 0, 8169
2, 1450, Pitch_bend_c, 0, 8178
2, 1451, Pitch_bend_c, 0, 8191
2, 1452, Pitch_bend_c, 0, 8210
2, 1453, Pitch_bend_c, 0, 8218
2, 1454, Pitch_bend_c, 0, 8220
2, 1455, Pitch_bend_c, 0, 8215
2, 1456, Pitch_bend_c, 0, 8210
2, 1457, Pitch_bend_c, 0, 8215
2, 1458, Pitch_bend_c, 0, 8228
2, 1459, Pitch_bend_c, 0, 8225
2, 1460, Pitch_bend_c, 0, 8223
2, 1461, Pitch_bend_c, 0, 8218
2, 1462, Pitch_bend_c, 0, 8220
2, 1463, Pitch_bend_c, 0, 8225
2, 1464, Pitch_bend_c, 0, 8220
2, 1465, Pitch_bend_c, 0, 8205
2, 1466, Pitch_bend_c, 0, 8205
2, 1467, Pitch_bend_c, 0, 8215
2, 1468, Pitch_bend_c, 0, 8215
2, 1469, Pitch_bend_c, 0, 8215
2, 1470, Pitch_bend_c, 0, 8201
2, 1471, Pitch_bend_c, 0, 8203
2, 1472, Pitch_bend_c, 0, 8205
2, 1473, Pitch_bend_c, 0, 8215
2, 1474, Pitch_bend_c, 0, 8220
2, 1475, Pitch_bend_c, 0, 8210
2, 1476, Pitch_bend_c, 0, 8208
2, 1477, Pitch_bend_c, 0, 8203
2, 1478, Pitch_bend_c, 0, 8201
2, 1479, Pitch_bend_c, 0, 8203
2, 1480, Pitch_bend_c, 0, 8196
2, 1481, Pitch_bend_c, 0, 8196
2, 1482, Pitch_bend_c, 0, 8191
2, 1483, Pitch_bend_c, 0, 8188
2, 1484, Pitch_bend_c, 0, 8188
2, 1485, Pitch_bend_c, 0, 8188
2, 1486, Pitch_bend_c, 0, 8191
2, 1487, Pitch_bend_c, 0, 8191
2, 1488, Pitch_bend_c, 0, 8193
2, 1489, Pitch_bend_c, 0, 8196
2, 1490, Pitch_bend_c, 0, 8191
2, 1491, Pitch_bend_c, 0, 8186
2, 1492, Pitch_bend_c, 0, 8183
2, 1493, Pitch_bend_c, 0, 8181
2, 1494, Pitch_bend_c, 0, 8178
2, 1495, Pitch_bend_c, 0, 8188
2, 1496, Pitch_bend_c, 0, 8201
2, 1497, Pitch_bend_c, 0, 8210
2, 1498, Pitch_bend_c, 0, 8203
2, 1499, Pitch_bend_c, 0, 8191
2, 1500, Pitch_bend_c, 0, 8176
2, 1501, Pitch_bend_c, 0, 8181
2, 1502, Pitch_bend_c, 0, 8178
2, 1503, Pitch_bend_c, 0, 8181
2, 1504, Pitch_bend_c, 0, 8178
2, 1505, Pitch_bend_c, 0, 8181
2, 1506, Pitch_bend_c, 0, 8181
2, 1507, Pitch_bend_c, 0, 8188
2, 1508, Pitch_bend_c, 0, 8188
2, 1509, Pitch_bend_c, 0, 8196
2, 1510, Pitch_bend_c, 0, 8196
2, 1511, Pitch_bend_c, 0, 8203
2, 1512, Pitch_bend_c, 0, 8203
2, 1513, Pitch_bend_c, 0, 8210
2, 1514, Pitch_bend_c, 0, 8203
2, 1515, Pitch_bend_c, 0, 8210
2, 1516, Pitch_bend_c, 0, 8203
2, 1517, Pitch_bend_c, 0, 8201
2, 1518, Pitch_bend_c, 0, 8198
2, 1519, Pitch_bend_c, 0, 8201
2, 1520, Pitch_bend_c, 0, 8205
2, 1521, Pitch_bend_c, 0, 8208
2, 1522, Pitch_bend_c, 0, 8205
2, 1523, Pitch_bend_c, 0, 8210
2, 1524, Pitch_bend_c, 0, 8213
2, 1525, Pitch_bend_c, 0, 8223
2, 1526, Pitch_bend_c, 0, 8230
2, 1527, Pitch_bend_c, 0, 8225
2, 1528, Pitch_bend_c, 0, 8220
2, 1529, Pitch_bend_c, 0, 8210
2, 1530, Pitch_bend_c, 0, 8215
2, 1531, Pitch_bend_c, 0, 8218
2, 1532, Pitch_bend_c, 0, 8237
2, 1533, Pitch_bend_c, 0, 8230
2, 1534, Pitch_bend_c, 0, 8223
2, 1535, Pitch_bend_c, 0, 8215
2, 1536, Pitch_bend_c, 0, 8218
2, 1537, Pitch_bend_c, 0, 8223
2, 1538, Pitch_bend_c, 0, 8225
2, 1539, Pitch_bend_c, 0, 8220
2, 1540, Pitch_bend_c, 0, 8223
2, 1541, Pitch_bend_c, 0, 8223
2, 1542, Pitch_bend_c, 0, 8225
2, 1543, Pitch_bend_c, 0, 8215
2, 1544, Pitch_bend_c, 0, 8215
2, 1545, Pitch_bend_c, 0, 8205
2, 1546, Pitch_bend_c, 0, 8220
2, 1547, Pitch_bend_c, 0, 8223
2, 1548, Pitch_bend_c, 0, 8223
2, 1549, Pitch_bend_c, 0, 8228
2, 1550, Pitch_bend_c, 0, 8230
2, 1551, Pitch_bend_c, 0, 8230
2, 1552, Pitch_bend_c, 0, 8228
2, 1553, Pitch_bend_c, 0, 8225
2, 1554, Pitch_bend_c, 0, 8225
2, 1555, Pitch_bend_c, 0, 8235
2, 1556, Pitch_bend_c, 0, 8237
2, 1557, Pitch_bend_c, 0, 8232
2, 1558, Pitch_bend_c, 0, 8225
2, 1559, Pitch_bend_c, 0, 8228
2, 1560, Pitch_bend_c, 0, 8228
2, 1561, Pitch_bend_c, 0, 8232
2, 1562, Pitch_bend_c, 0, 8230
2, 1563, Pitch_bend_c, 0, 8230
2, 1564, Pitch_bend_c, 0, 8230
2, 1565, Pitch_bend_c, 0, 8232
2, 1566, Pitch_bend_c, 0, 8235
2, 1567, Pitch_bend_c, 0, 8240
2, 1568, Pitch_bend_c, 0, 8237
2, 1569, Pitch_bend_c, 0, 8228
2, 1570, Pitch_bend_c, 0, 8230
2, 1571, Pitch_bend_c, 0, 8228
2, 1572, Pitch_bend_c, 0, 8225
2, 1573, Pitch_bend_c, 0, 8225
2, 1574, Pitch_bend_c, 0, 8223
2, 1575, Pitch_bend_c, 0, 8225
2, 1576, Pitch_bend_c, 0, 8232
2, 1577, Pitch_bend_c, 0, 8235
2, 1578, Pitch_bend_c, 0, 8242
2, 1579, Pitch_bend_c, 0, 8235
2, 1580, Pitch_bend_c, 0, 8230
2, 1581, Pitch_bend_c, 0, 8223
2, 1582, Pitch_bend_c, 0, 8220
2, 1583, Pitch_bend_c, 0, 8228
2, 1584, Pitch_bend_c, 0, 8232
2, 1585, Pitch_bend_c, 0, 8225
2, 1586, Pitch_bend_c, 0, 8225
2, 1587, Pitch_bend_c, 0, 8228
2, 1588, Pitch_bend_c, 0, 8225
2, 1589, Pitch_bend_c, 0, 8225
2, 1590, Pitch_bend_c, 0, 8225
2, 1591, Pitch_bend_c, 0, 8220
2, 1592, Pitch_bend_c, 0, 8220
2, 1593, Pitch_bend_c, 0, 8218
2, 1594, Pitch_bend_c, 0, 8215
2, 1595, Pitch_bend_c, 0, 8218
2, 1596, Pitch_bend_c, 0, 8223
2, 1597, Pitch_bend_c, 0, 8223
2, 1598, Pitch_bend_c, 0, 8223
2, 1599, Pitch_bend_c, 0, 8225
2, 1600, Pitch_bend_c, 0, 8223
2, 1601, Pitch_bend_c, 0, 8228
2, 1602, Pitch_bend_c, 0, 8220
2, 1603, Pitch_bend_c, 0, 8218
2, 1604, Pitch_bend_c, 0, 8223
2, 1605, Pitch_bend_c, 0, 8228
2, 1606, Pitch_bend_c, 0, 8228
2, 1607, Pitch_bend_c, 0, 8230
2, 1608, Pitch_bend_c, 0, 8218
2, 1609, Pitch_bend_c, 0, 8215
2, 1610, Pitch_bend_c, 0, 8215
2, 1611, Pitch_bend_c, 0, 8213
2, 1612, Pitch_bend_c, 0, 8215
2, 1613, Pitch_bend_c, 0, 8220
2, 1614, Pitch_bend_c, 0, 8220
2, 1615, Pitch_bend_c, 0, 8225
2, 1616, Pitch_bend_c, 0, 8220
2, 1617, Pitch_bend_c, 0, 8225
2, 1618, Pitch_bend_c, 0, 8225
2, 1619, Pitch_bend_c, 0, 8228
2, 1620, Pitch_bend_c, 0, 8218
2, 1621, Pitch_bend_c, 0, 8220
2, 1622, Pitch_bend_c, 0, 8225
2, 1623, Pitch_bend_c, 0, 8230
2, 1624, Pitch_bend_c, 0, 8230
2, 1625, Pitch_bend_c, 0, 8232
2, 1626, Pitch_bend_c, 0, 8228
2, 1627, Pitch_bend_c, 0, 8235
2, 1628, Pitch_bend_c, 0, 8230
2, 1629, Pitch_bend_c, 0, 8225
2, 1630, Pitch_bend_c, 0, 8220
2, 1631, Pitch_bend_c, 0, 8218
2, 1632, Pitch_bend_c, 0, 8223
2, 1633, Pitch_bend_c, 0, 8232
2, 1634, Pitch_bend_c, 0, 8230
2, 1635, Pitch_bend_c, 0, 8230
2, 1636, Pitch_bend_c, 0, 8225
2, 1637, Pitch_bend_c, 0, 8228
2, 1638, Pitch_bend_c, 0, 8228
2, 1639, Pitch_bend_c, 0, 8230
2, 1640, Pitch_bend_c, 0, 8228
2, 1641, Pitch_bend_c, 0, 8230
2, 1642, Pitch_bend_c, 0, 8230
2, 1643, Pitch_bend_c, 0, 8232
2, 1644, Pitch_bend_c, 0, 8230
2, 1645, Pitch_bend_c, 0, 8228
2, 1646, Pitch_bend_c, 0, 8225
2, 1647, Pitch_bend_c, 0, 8225
2, 1648, Pitch_bend_c, 0, 8223
2, 1649, Pitch_bend_c, 0, 8218
2, 1650, Pitch_bend_c, 0, 8218
2, 1651, Pitch_bend_c, 0, 8223
2, 1652, Pitch_bend_c, 0, 8225
2, 1653, Pitch_bend_c, 0, 8220
2, 1654, Pitch_bend_c, 0, 8208
2, 1655, Pitch_bend_c, 0, 8208
2, 1656, Pitch_bend_c, 0, 8213
2, 1657, Pitch_bend_c, 0, 8210
2, 1658, Pitch_bend_c, 0, 8205
2, 1659, Pitch_bend_c, 0, 8193
2, 1660, Pitch_bend_c, 0, 8203
2, 1661, Pitch_bend_c, 0, 8208
2, 1662, Pitch_bend_c, 0, 8213
2, 1663, Pitch_bend_c, 0, 8198
2, 1664, Pitch_bend_c, 0, 8196
2, 1665, Pitch_bend_c, 0, 8193
2, 1666, Pitch_bend_c, 0, 8198
2, 1667, Pitch_bend_c, 0, 8193
2, 1668, Pitch_bend_c, 0, 8183
2, 1669, Pitch_bend_c, 0, 8166
2, 1670, Pitch_bend_c, 0, 8159
2, 1671, Pitch_bend_c, 0, 8146
2, 1672, Pitch_bend_c, 0, 8122
2, 1673, Pitch_bend_c, 0, 8090
2, 1674, Pitch_bend_c, 0, 8063
2, 1675, Pitch_bend_c, 0, 7974
2, 1676, Pitch_bend_c, 0, 7940
2, 1677, Pitch_bend_c, 0, 7825
2, 1678, Pitch_bend_c, 0, 7756
2, 1680, Note_off_c, 0, 88, 102
2, 1680, Note_on_c, 0, 85, 94
2, 1680, Pitch_bend_c, 0, 13489
2, 1681, Pitch_bend_c, 0, 13319
2, 1682, Pitch_bend_c, 0, 12833
2, 1683, Pitch_bend_c, 0, 12543
2, 1684, Pitch_bend_c, 0, 11798
2, 1685, Pitch_bend_c, 0, 11454
2, 1686, Pitch_bend_c, 0, 10650
2, 1687, Pitch_bend_c, 0, 10331
2, 1688, Pitch_bend_c, 0, 10073
2, 1689, Pitch_bend_c, 0, 9665
2, 1690, Pitch_bend_c, 0, 9473
2, 1691, Pitch_bend_c, 0, 9147
2, 1692, Pitch_bend_c, 0, 9051
2, 1693, Pitch_bend_c, 0, 8987
2, 1694, Pitch_bend_c, 0, 8945
2, 1695, Pitch_bend_c, 0, 8785
2, 1696, Pitch_bend_c, 0, 8736
2, 1697, Pitch_bend_c, 0, 8746
2, 1698, Pitch_bend_c, 0, 8790
2, 1699, Pitch_bend_c, 0, 8776
2, 1700, Pitch_bend_c, 0, 8712
2, 1701, Pitch_bend_c, 0, 8687
2, 1702, Pitch_bend_c, 0, 8704
2, 1703, Pitch_bend_c, 0, 8729
2, 1704, Pitch_bend_c, 0, 8729
2, 1705, Pitch_bend_c, 0, 8670
2, 1706, Pitch_bend_c, 0, 8653
2, 1707, Pitch_bend_c, 0, 8672
2, 1708, Pitch_bend_c, 0, 8692
2, 1709, Pitch_bend_c, 0, 8675
2, 1710, Pitch_bend_c, 0, 8650
2, 1711, Pitch_bend_c, 0, 8633
2, 1712, Pitch_bend_c, 0, 8653
2, 1713, Pitch_bend_c, 0, 8672
2, 1714, Pitch_bend_c, 0, 8670
2, 1715, Pitch_bend_c, 0, 8640
2, 1716, Pitch_bend_c, 0, 8606
2, 1717, Pitch_bend_c, 0, 8613
2, 1718, Pitch_bend_c, 0, 8650
2, 1719, Pitch_bend_c, 0, 8628
2, 1720, Pitch_bend_c, 0, 8584
2, 1721, Pitch_bend_c, 0, 8535
2, 1722, Pitch_bend_c, 0, 8540
2, 1723, Pitch_bend_c, 0, 8564
2, 1724, Pitch_bend_c, 0, 8554
2, 1725, Pitch_bend_c, 0, 8483
2, 1726, Pitch_bend_c, 0, 8461
2, 1727, Pitch_bend_c, 0, 8473
2, 1728, Pitch_bend_c, 0, 8515
2, 1729, Pitch_bend_c, 0, 8493
2, 1730, Pitch_bend_c, 0, 8414
2, 1731, Pitch_bend_c, 0, 8402
2, 1732, Pitch_bend_c, 0, 8431
2, 1733, Pitch_bend_c, 0, 8439
2, 1734, Pitch_bend_c, 0, 8392
2, 1735, Pitch_bend_c, 0, 8358
2, 1736, Pitch_bend_c, 0, 8358
2, 1737, Pitch_bend_c, 0, 8382
2, 1738, Pitch_bend_c, 0, 8380
2, 1739, Pitch_bend_c, 0, 8323
2, 1740, Pitch_bend_c, 0, 8296
2, 1741, Pitch_bend_c, 0, 8318
2, 1742, Pitch_bend_c, 0, 8338
2, 1743, Pitch_bend_c, 0, 8331
2, 1744, Pitch_bend_c, 0, 8252
2, 1745, Pitch_bend_c, 0, 8232
2, 1746, Pitch_bend_c, 0, 8247
2, 1747, Pitch_bend_c, 0, 8257
2, 1748, Pitch_bend_c, 0, 8228
2, 1749, Pitch_bend_c, 0, 8203
2, 1750, Pitch_bend_c, 0, 8186
2, 1751, Pitch_bend_c, 0, 8205
2, 1752, Pitch_bend_c, 0, 8215
2, 1753, Pitch_bend_c, 0, 8188
2, 1754, Pitch_bend_c, 0, 8176
2, 1755, Pitch_bend_c, 0, 8166
2, 1756, Pitch_bend_c, 0, 8169
2, 1757, Pitch_bend_c, 0, 8164
2, 1758, Pitch_bend_c, 0, 8154
2, 1759, Pitch_bend_c, 0, 8154
2, 1760, Pitch_bend_c, 0, 8156
2, 1761, Pitch_bend_c, 0, 8151
2, 1762, Pitch_bend_c, 0, 8132
2, 1763, Pitch_bend_c, 0, 8134
2, 1764, Pitch_bend_c, 0, 8142
2, 1765, Pitch_bend_c, 0, 8146
2, 1766, Pitch_bend_c, 0, 8149
2, 1767, Pitch_bend_c, 0, 8127
2, 1768, Pitch_bend_c, 0, 8119
2, 1769, Pitch_bend_c, 0, 8134
2, 1770, Pitch_bend_c, 0, 8151
2, 1771, Pitch_bend_c, 0, 8169
2, 1772, Pitch_bend_c, 0, 8154
2, 1773, Pitch_bend_c, 0, 8144
2, 1774, Pitch_bend_c, 0, 8149
2, 1775, Pitch_bend_c, 0, 8156
2, 1776, Pitch_bend_c, 0, 8156
2, 1777, Pitch_bend_c, 0, 8154
2, 1778, Pitch_bend_c, 0, 8164
2, 1779, Pitch_bend_c, 0, 8171
2, 1780, Pitch_bend_c, 0, 8193
2, 1781, Pitch_bend_c, 0, 8201
2, 1782, Pitch_bend_c, 0, 8201
2, 1783, Pitch_bend_c, 0, 8215
2, 1784, Pitch_bend_c, 0, 8218
2, 1785, Pitch_bend_c, 0, 8210
2, 1786, Pitch_bend_c, 0, 8196
2, 1787, Pitch_bend_c, 0, 8213
2, 1788, Pitch_bend_c, 0, 8242
2, 1789, Pitch_bend_c, 0, 8259
2, 1790, Pitch_bend_c, 0, 8245
2, 1791, Pitch_bend_c, 0, 8232
2, 1792, Pitch_bend_c, 0, 8247
2, 1793, Pitch_bend_c, 0, 8262
2, 1794, Pitch_bend_c, 0, 8274
2, 1795, Pitch_bend_c, 0, 8262
2, 1796, Pitch_bend_c, 0, 8250
2, 1797, Pitch_bend_c, 0, 8264
2, 1798, Pitch_bend_c, 0, 8284
2, 1799, Pitch_bend_c, 0, 8287
2, 1800, Pitch_bend_c, 0, 8274
2, 1801, Pitch_bend_c, 0, 8282
2, 1802, Pitch_bend_c, 0, 8291
2, 1803, Pitch_bend_c, 0, 8296
2, 1804, Pitch_bend_c, 0, 8284
2, 1805, Pitch_bend_c, 0, 8274
2, 1806, Pitch_bend_c, 0, 8289
2, 1807, Pitch_bend_c, 0, 8301
2, 1808, Pitch_bend_c, 0, 8328
2, 1809, Pitch_bend_c, 0, 8321
2, 1810, Pitch_bend_c, 0, 8282
2, 1811, Pitch_bend_c, 0, 8287
2, 1812, Pitch_bend_c, 0, 8301
2, 1813, Pitch_bend_c, 0, 8316
2, 1814, Pitch_bend_c, 0, 8301
2, 1815, Pitch_bend_c, 0, 8274
2, 1816, Pitch_bend_c, 0, 8284
2, 1817, Pitch_bend_c, 0, 8336
2, 1818, Pitch_bend_c, 0, 8338
2, 1819, Pitch_bend_c, 0, 8301
2, 1820, Pitch_bend_c, 0, 8279
2, 1821, Pitch_bend_c, 0, 8277
2, 1822, Pitch_bend_c, 0, 8321
2, 1823, Pitch_bend_c, 0, 8326
2, 1824, Pitch_bend_c, 0, 8287
2, 1825, Pitch_bend_c, 0, 8277
2, 1826, Pitch_bend_c, 0, 8304
2, 1827, Pitch_bend_c, 0, 8306
2, 1828, Pitch_bend_c, 0, 8301
2, 1829, Pitch_bend_c, 0, 8264
2, 1830, Pitch_bend_c, 0, 8264
2, 1831, Pitch_bend_c, 0, 8304
2, 1832, Pitch_bend_c, 0, 8314
2, 1833, Pitch_bend_c, 0, 8279
2, 1834, Pitch_bend_c, 0, 8259
2, 1835, Pitch_bend_c, 0, 8250
2, 1836, Pitch_bend_c, 0, 8291
2, 1837, Pitch_bend_c, 0, 8304
2, 1838, Pitch_bend_c, 0, 8272
2, 1839, Pitch_bend_c, 0, 8259
2, 1840, Pitch_bend_c, 0, 8279
2, 1841, Pitch_bend_c, 0, 8291
2, 1842, Pitch_bend_c, 0, 8289
2, 1843, Pitch_bend_c, 0, 8272
2, 1844, Pitch_bend_c, 0, 8264
2, 1845, Pitch_bend_c, 0, 8291
2, 1846, Pitch_bend_c, 0, 8311
2, 1847, Pitch_bend_c, 0, 8304
2, 1848, Pitch_bend_c, 0, 8287
2, 1849, Pitch_bend_c, 0, 8274
2, 1850, Pitch_bend_c, 0, 8287
2, 1851, Pitch_bend_c, 0, 8299
2, 1852, Pitch_bend_c, 0, 8296
2, 1853, Pitch_bend_c, 0, 8291
2, 1854, Pitch_bend_c, 0, 8299
2, 1855, Pitch_bend_c, 0, 8311
2, 1856, Pitch_bend_c, 0, 8304
2, 1857, Pitch_bend_c, 0, 8296
2, 1858, Pitch_bend_c, 0, 8299
2, 1859, Pitch_bend_c, 0, 8314
2, 1860, Pitch_bend_c, 0, 8326
2, 1861, Pitch_bend_c, 0, 8326
2, 1862, Pitch_bend_c, 0, 8314
2, 1863, Pitch_bend_c, 0, 8304
2, 1864, Pitch_bend_c, 0, 8309
2, 1865, Pitch_bend_c, 0, 8314
2, 1866, Pitch_bend_c, 0, 8309
2, 1867, Pitch_bend_c, 0, 8314
2, 1868, Pitch_bend_c, 0, 8321
2, 1869, Pitch_bend_c, 0, 8328
2, 1870, Pitch_bend_c, 0, 8316
2, 1871, Pitch_bend_c, 0, 8309
2, 1872, Pitch_bend_c, 0, 8296
2, 1873, Pitch_bend_c, 0, 8296
2, 1874, Pitch_bend_c, 0, 8299
2, 1875, Pitch_bend_c, 0, 8311
2, 1876, Pitch_bend_c, 0, 8316
2, 1877, Pitch_bend_c, 0, 8299
2, 1878, Pitch_bend_c, 0, 8289
2, 1879, Pitch_bend_c, 0, 8284
2, 1880, Pitch_bend_c, 0, 8291
2, 1881, Pitch_bend_c, 0, 8289
2, 1882, Pitch_bend_c, 0, 8282
2, 1883, Pitch_bend_c, 0, 8272
2, 1884, Pitch_bend_c, 0, 8274
2, 1885, Pitch_bend_c, 0, 8279
2, 1886, Pitch_bend_c, 0, 8282
2, 1887, Pitch_bend_c, 0, 8274
2, 1888, Pitch_bend_c, 0, 8264
2, 1889, Pitch_bend_c, 0, 8269
2, 1890, Pitch_bend_c, 0, 8274
2, 1891, Pitch_bend_c, 0, 8272
2, 1892, Pitch_bend_c, 0, 8264
2, 1893, Pitch_bend_c, 0, 8259
2, 1894, Pitch_bend_c, 0, 8272
2, 1895, Pitch_bend_c, 0, 8255
2, 1896, Pitch_bend_c, 0, 8255
2, 1897, Pitch_bend_c, 0, 8277
2, 1898, Pitch_bend_c, 0, 8287
2, 1899, Pitch_bend_c, 0, 8262
2, 1900, Pitch_bend_c, 0, 8245
2, 1901, Pitch_bend_c, 0, 8250
2, 1902, Pitch_bend_c, 0, 8274
2, 1903, Pitch_bend_c, 0, 8279
2, 1904, Pitch_bend_c, 0, 8240
2, 1905, Pitch_bend_c, 0, 8210
2, 1906, Pitch_bend_c, 0, 8186
2, 1907, Pitch_bend_c, 0, 8142
2, 1908, Pitch_bend_c, 0, 8058
2, 1909, Pitch_bend_c, 0, 7913
2, 1910, Pitch_bend_c, 0, 7825
2, 1911, Pitch_bend_c, 0, 7638
2, 1912, Pitch_bend_c, 0, 7365
2, 1913, Pitch_bend_c, 0, 7122
2, 1914, Pitch_bend_c, 0, 6534
2, 1915, Pitch_bend_c, 0, 6335
2, 1916, Pitch_bend_c, 0, 5928
2, 1917, Pitch_bend_c, 0, 5576
2, 1918, Pitch_bend_c, 0, 5149
2, 1920, Note_off_c, 0, 85, 94
2, 1920, Note_on_c, 0, 83, 102
2, 1920, Pitch_bend_c, 0, 8794
2, 1921, Pitch_bend_c, 0, 8762
2, 1922, Pitch_bend_c, 0, 8708
2, 1923, Pitch_bend_c, 0, 8534
2, 1924, Pitch_bend_c, 0, 8497
2, 1925, Pitch_bend_c, 0, 8423
2, 1926, Pitch_bend_c, 0, 8386
2, 1927, Pitch_bend_c, 0, 8352
2, 1928, Pitch_bend_c, 0, 8350
2, 1929, Pitch_bend_c, 0, 8325
2, 1930, Pitch_bend_c, 0, 8330
2, 1931, Pitch_bend_c, 0, 8335
2, 1932, Pitch_bend_c, 0, 8296
2, 1933, Pitch_bend_c, 0, 8300
2, 1934, Pitch_bend_c, 0, 8278
2, 1935, Pitch_bend_c, 0, 8271
2, 1936, Pitch_bend_c, 0, 8273
2, 1937, Pitch_bend_c, 0, 8281
2, 1938, Pitch_bend_c, 0, 8281
2, 1939, Pitch_bend_c, 0, 8296
2, 1940, Pitch_bend_c, 0, 8291
2, 1941, Pitch_bend_c, 0, 8281
2, 1942, Pitch_bend_c, 0, 8286
2, 1943, Pitch_bend_c, 0, 8266
2, 1944, Pitch_bend_c, 0, 8268
2, 1945, Pitch_bend_c, 0, 8273
2, 1946, Pitch_bend_c, 0, 8278
2, 1947, Pitch_bend_c, 0, 8281
2, 1948, Pitch_bend_c, 0, 8283
2, 1949, Pitch_bend_c, 0, 8278
2, 1950, Pitch_bend_c, 0, 8271
2, 1951, Pitch_bend_c, 0, 8273
2, 1952, Pitch_bend_c, 0, 8271
2, 1953, Pitch_bend_c, 0, 8278
2, 1954, Pitch_bend_c, 0, 8278
2, 1955, Pitch_bend_c, 0, 8278
2, 1956, Pitch_bend_c, 0, 8278
2, 1957, Pitch_bend_c, 0, 8276
2, 1958, Pitch_bend_c, 0, 8271
2, 1959, Pitch_bend_c, 0, 8271
2, 1960, Pitch_bend_c, 0, 8276
2, 1961, Pitch_bend_c, 0, 8273
2, 1962, Pitch_bend_c, 0, 8283
2, 1963, Pitch_bend_c, 0, 8288
2, 1964, Pitch_bend_c, 0, 8283
2, 1965, Pitch_bend_c, 0, 8281
2, 1966, Pitch_bend_c, 0, 8286
2, 1967, Pitch_bend_c, 0, 8286
2, 1968, Pitch_bend_c, 0, 8288
2, 1969, Pitch_bend_c, 0, 8291
2, 1970, Pitch_bend_c, 0, 8286
2, 1971, Pitch_bend_c, 0, 8291
2, 1972, Pitch_bend_c, 0, 8293
2, 1973, Pitch_bend_c, 0, 8286
2, 1974, Pitch_bend_c, 0, 8288
2, 1975, Pitch_bend_c, 0, 8288
2, 1976, Pitch_bend_c, 0, 8286
2, 1977, Pitch_bend_c, 0, 8293
2, 1978, Pitch_bend_c, 0, 8293
2, 1979, Pitch_bend_c, 0, 8288
2, 1980, Pitch_bend_c, 0, 8293
2, 1981, Pitch_bend_c, 0, 8298
2, 1982, Pitch_bend_c, 0, 8296
2, 1983, Pitch_bend_c, 0, 8293
2, 1984, Pitch_bend_c, 0, 8293
2, 1985, Pitch_bend_c, 0, 8288
2, 1986, Pitch_bend_c, 0, 8293
2, 1987, Pitch_bend_c, 0, 8291
2, 1988, Pitch_bend_c, 0, 8291
2, 1989, Pitch_bend_c, 0, 8296
2, 1990, Pitch_bend_c, 0, 8291
2, 1991, Pitch_bend_c, 0, 8286
2, 1992, Pitch_bend_c, 0, 8291
2, 1993, Pitch_bend_c, 0, 8291
2, 1994, Pitch_bend_c, 0, 8286
2, 1995, Pitch_bend_c, 0, 8286
2, 1996, Pitch_bend_c, 0, 8286
2, 1997, Pitch_bend_c, 0, 8281
2, 1998, Pitch_bend_c, 0, 8281
2, 1999, Pitch_bend_c, 0, 8276
2, 2000, Pitch_bend_c, 0, 8271
2, 2001, Pitch_bend_c, 0, 8276
2, 2002, Pitch_bend_c, 0, 8278
2, 2003, Pitch_bend_c, 0, 8273
2, 2004, Pitch_bend_c, 0, 8276
2, 2005, Pitch_bend_c, 0, 8271
2, 2006, Pitch_bend_c, 0, 8268
2, 2007, Pitch_bend_c, 0, 8271
2, 2008, Pitch_bend_c, 0, 8273
2, 2009, Pitch_bend_c, 0, 8268
2, 2010, Pitch_bend_c, 0, 8276
2, 2011, Pitch_bend_c, 0, 8276
2, 2012, Pitch_bend_c, 0, 8264
2, 2013, Pitch_bend_c, 0, 8266
2, 2014, Pitch_bend_c, 0, 8266
2, 2015, Pitch_bend_c, 0, 8259
2, 2016, Pitch_bend_c, 0, 8266
2, 2017, Pitch_bend_c, 0, 8266
2, 2018, Pitch_bend_c, 0, 8259
2, 2019, Pitch_bend_c, 0, 8273
2, 2020, Pitch_bend_c, 0, 8268
2, 2021, Pitch_bend_c, 0, 8256
2, 2022, Pitch_bend_c, 0, 8266
2, 2023, Pitch_bend_c, 0, 8264
2, 2024, Pitch_bend_c, 0, 8261
2, 2025, Pitch_bend_c, 0, 8271
2, 2026, Pitch_bend_c, 0, 8259
2, 2027, Pitch_bend_c, 0, 8259
2, 2028, Pitch_bend_c, 0, 8268
2, 2029, Pitch_bend_c, 0, 8261
2, 2030, Pitch_bend_c, 0, 8259
2, 2031, Pitch_bend_c, 0, 8266
2, 2032, Pitch_bend_c, 0, 8264
2, 2033, Pitch_bend_c, 0, 8271
2, 2034, Pitch_bend_c, 0, 8278
2, 2035, Pitch_bend_c, 0, 8259
2, 2036, Pitch_bend_c, 0, 8259
2, 2037, Pitch_bend_c, 0, 8266
2, 2038, Pitch_bend_c, 0, 8259
2, 2039, Pitch_bend_c, 0, 8266
2, 2040, Pitch_bend_c, 0, 8273
2, 2041, Pitch_bend_c, 0, 8261
2, 2042, Pitch_bend_c, 0, 8266
2, 2043, Pitch_bend_c, 0, 8268
2, 2044, Pitch_bend_c, 0, 8259
2, 2045, Pitch_bend_c, 0, 8261
2, 2046, Pitch_bend_c, 0, 8264
2, 2047, Pitch_bend_c, 0, 8266
2, 2048, Pitch_bend_c, 0, 8273
2, 2049, Pitch_bend_c, 0, 8271
2, 2050, Pitch_bend_c, 0, 8261
2, 2051, Pitch_bend_c, 0, 8259
2, 2052, Pitch_bend_c, 0, 8256
2, 2053, Pitch_bend_c, 0, 8256
2, 2054, Pitch_bend_c, 0, 8271
2, 2055, Pitch_bend_c, 0, 8271
2, 2056, Pitch_bend_c, 0, 8273
2, 2057, Pitch_bend_c, 0, 8273
2, 2058, Pitch_bend_c, 0, 8264
2, 2059, Pitch_bend_c, 0, 8259
2, 2060, Pitch_bend_c, 0, 8268
2, 2061, Pitch_bend_c, 0, 8266
2, 2062, Pitch_bend_c, 0, 8273
2, 2063, Pitch_bend_c, 0, 8288
2, 2064, Pitch_bend_c, 0, 8288
2, 2065, Pitch_bend_c, 0, 8273
2, 2066, Pitch_bend_c, 0, 8276
2, 2067, Pitch_bend_c, 0, 8266
2, 2068, Pitch_bend_c, 0, 8268
2, 2069, Pitch_bend_c, 0, 8268
2, 2070, Pitch_bend_c, 0, 8278
2, 2071, Pitch_bend_c, 0, 8278
2, 2072, Pitch_bend_c, 0, 8288
2, 2073, Pitch_bend_c, 0, 8283
2, 2074, Pitch_bend_c, 0, 8268
2, 2075, Pitch_bend_c, 0, 8261
2, 2076, Pitch_bend_c, 0, 8264
2, 2077, Pitch_bend_c, 0, 8268
2, 2078, Pitch_bend_c, 0, 8276
2, 2079, Pitch_bend_c, 0, 8273
2, 2080, Pitch_bend_c, 0, 8276
2, 2081, Pitch_bend_c, 0, 8273
2, 2082, Pitch_bend_c, 0, 8264
2, 2083, Pitch_bend_c, 0, 8259
2, 2084, Pitch_bend_c, 0, 8256
2, 2085, Pitch_bend_c, 0, 8259
2, 2086, Pitch_bend_c, 0, 8261
2, 2087, Pitch_bend_c, 0, 8271
2, 2088, Pitch_bend_c, 0, 8259
2, 2089, Pitch_bend_c, 0, 8254
2, 2090, Pitch_bend_c, 0, 8249
2, 2091, Pitch_bend_c, 0, 8246
2, 2092, Pitch_bend_c, 0, 8239
2, 2093, Pitch_bend_c, 0, 8249
2, 2094, Pitch_bend_c, 0, 8251
2, 2095, Pitch_bend_c, 0, 8249
2, 2096, Pitch_bend_c, 0, 8246
2, 2097, Pitch_bend_c, 0, 8232
2, 2098, Pitch_bend_c, 0, 8224
2, 2099, Pitch_bend_c, 0, 8227
2, 2100, Pitch_bend_c, 0, 8229
2, 2101, Pitch_bend_c, 0, 8229
2, 2102, Pitch_bend_c, 0, 8239
2, 2103, Pitch_bend_c, 0, 8237
2, 2104, Pitch_bend_c, 0, 8224
2, 2105, Pitch_bend_c, 0, 8222
2, 2106, Pitch_bend_c, 0, 8212
2, 2107, Pitch_bend_c, 0, 8217
2, 2108, Pitch_bend_c, 0, 8219
2, 2109, Pitch_bend_c, 0, 8219
2, 2110, Pitch_bend_c, 0, 8222
2, 2111, Pitch_bend_c, 0, 8222
2, 2112, Pitch_bend_c, 0, 8210
2, 2113, Pitch_bend_c, 0, 8207
2, 2114, Pitch_bend_c, 0, 8207
2, 2115, Pitch_bend_c, 0, 8202
2, 2116, Pitch_bend_c, 0, 8214
2, 2117, Pitch_bend_c, 0, 8219
2, 2118, Pitch_bend_c, 0, 8214
2, 2119, Pitch_bend_c, 0, 8217
2, 2120, Pitch_bend_c, 0, 8202
2, 2121, Pitch_bend_c, 0, 8197
2, 2122, Pitch_bend_c, 0, 8200
2, 2123, Pitch_bend_c, 0, 8200
2, 2124, Pitch_bend_c, 0, 8202
2, 2125, Pitch_bend_c, 0, 8219
2, 2126, Pitch_bend_c, 0, 8210
2, 2127, Pitch_bend_c, 0, 8207
2, 2128, Pitch_bend_c, 0, 8212
2, 2129, Pitch_bend_c, 0, 8197
2, 2130, Pitch_bend_c, 0, 8200
2, 2131, Pitch_bend_c, 0, 8210
2, 2132, Pitch_bend_c, 0, 8200
2, 2133, Pitch_bend_c, 0, 8207
2, 2134, Pitch_bend_c, 0, 8212
2, 2135, Pitch_bend_c, 0, 8200
2, 2136, Pitch_bend_c, 0, 8207
2, 2137, Pitch_bend_c, 0, 8207
2, 2138, Pitch_bend_c, 0, 8202
2, 2139, Pitch_bend_c, 0, 8205
2, 2140, Pitch_bend_c, 0, 8212
2, 2141, Pitch_bend_c, 0, 8205
2, 2142, Pitch_bend_c, 0, 8217
2, 2143, Pitch_bend_c, 0, 8205
2, 2144, Pitch_bend_c, 0, 8202
2, 2145, Pitch_bend_c, 0, 8207
2, 2146, Pitch_bend_c, 0, 8205
2, 2147, Pitch_bend_c, 0, 8200
2, 2148, Pitch_bend_c, 0, 8212
2, 2149, Pitch_bend_c, 0, 8207
2, 2150, Pitch_bend_c, 0, 8205
2, 2151, Pitch_bend_c, 0, 8210
2, 2152, Pitch_bend_c, 0, 8202
2, 2153, Pitch_bend_c, 0, 8207
2, 2154, Pitch_bend_c, 0, 8210
2, 2155, Pitch_bend_c, 0, 8202
2, 2156, Pitch_bend_c, 0, 8202
2, 2157, Pitch_bend_c, 0, 8202
2, 2158, Pitch_bend_c, 0, 8200
2, 2159, Pitch_bend_c, 0, 8207
2, 2160, Pitch_bend_c, 0, 8202
2, 2161, Pitch_bend_c, 0, 8197
2, 2162, Pitch_bend_c, 0, 8210
2, 2163, Pitch_bend_c, 0, 8205
2, 2164, Pitch_bend_c, 0, 8200
2, 2165, Pitch_bend_c, 0, 8205
2, 2166, Pitch_bend_c, 0, 8202
2, 2167, Pitch_bend_c, 0, 8202
2, 2168, Pitch_bend_c, 0, 8205
2, 2169, Pitch_bend_c, 0, 8210
2, 2170, Pitch_bend_c, 0, 8207
2, 2171, Pitch_bend_c, 0, 8210
2, 2172, Pitch_bend_c, 0, 8202
2, 2173, Pitch_bend_c, 0, 8202
2, 2174, Pitch_bend_c, 0, 8200
2, 2175, Pitch_bend_c, 0, 8205
2, 2176, Pitch_bend_c, 0, 8207
2, 2177, Pitch_bend_c, 0, 8210
2, 2178, Pitch_bend_c, 0, 8207
2, 2179, Pitch_bend_c, 0, 8207
2, 2180, Pitch_bend_c, 0, 8197
2, 2181, Pitch_bend_c, 0, 8197
2, 2182, Pitch_bend_c, 0, 8205
2, 2183, Pitch_bend_c, 0, 8202
2, 2184, Pitch_bend_c, 0, 8205
2, 2185, Pitch_bend_c, 0, 8207
2, 2186, Pitch_bend_c, 0, 8207
2, 2187, Pitch_bend_c, 0, 8202
2, 2188, Pitch_bend_c, 0, 8200
2, 2189, Pitch_bend_c, 0, 8197
2, 2190, Pitch_bend_c, 0, 8202
2, 2191, Pitch_bend_c, 0, 8205
2, 2192, Pitch_bend_c, 0, 8207
2, 2193, Pitch_bend_c, 0, 8207
2, 2194, Pitch_bend_c, 0, 8200
2, 2195, Pitch_bend_c, 0, 8197
2, 2196, Pitch_bend_c, 0, 8200
2, 2197, Pitch_bend_c, 0, 8197
2, 2198, Pitch_bend_c, 0, 8197
2, 2199, Pitch_bend_c, 0, 8205
2, 2200, Pitch_bend_c, 0, 8205
2, 2201, Pitch_bend_c, 0, 8197
2, 2202, Pitch_bend_c, 0, 8197
2, 2203, Pitch_bend_c, 0, 8192
2, 2204, Pitch_bend_c, 0, 8195
2, 2205, Pitch_bend_c, 0, 8197
2, 2206, Pitch_bend_c, 0, 8197
2, 2207, Pitch_bend_c, 0, 8202
2, 2208, Pitch_bend_c, 0, 8200
2, 2209, Pitch_bend_c, 0, 8195
2, 2210, Pitch_bend_c, 0, 8192
2, 2211, Pitch_bend_c, 0, 8195
2, 2212, Pitch_bend_c, 0, 8200
2, 2213, Pitch_bend_c, 0, 8205
2, 2214, Pitch_bend_c, 0, 8202
2, 2215, Pitch_bend_c, 0, 8205
2, 2216, Pitch_bend_c, 0, 8202
2, 2217, Pitch_bend_c, 0, 8197
2, 2218, Pitch_bend_c, 0, 8197
2, 2219, Pitch_bend_c, 0, 8202
2, 2220, Pitch_bend_c, 0, 8205
2, 2221, Pitch_bend_c, 0, 8212
2, 2222, Pitch_bend_c, 0, 8210
2, 2223, Pitch_bend_c, 0, 8205
2, 2224, Pitch_bend_c, 0, 8210
2, 2225, Pitch_bend_c, 0, 8205
2, 2226, Pitch_bend_c, 0, 8205
2, 2227, Pitch_bend_c, 0, 8207
2, 2228, Pitch_bend_c, 0, 8212
2, 2229, Pitch_bend_c, 0, 8214
2, 2230, Pitch_bend_c, 0, 8217
2, 2231, Pitch_bend_c, 0, 8212
2, 2232, Pitch_bend_c, 0, 8212
2, 2233, Pitch_bend_c, 0, 8212
2, 2234, Pitch_bend_c, 0, 8212
2, 2235, Pitch_bend_c, 0, 8214
2, 2236, Pitch_bend_c, 0, 8217
2, 2237, Pitch_bend_c, 0, 8214
2, 2238, Pitch_bend_c, 0, 8212
2, 2239, Pitch_bend_c, 0, 8210
2, 2240, Pitch_bend_c, 0, 8210
2, 2241, Pitch_bend_c, 0, 8212
2, 2242, Pitch_bend_c, 0, 8212
2, 2243, Pitch_bend_c, 0, 8212
2, 2244, Pitch_bend_c, 0, 8214
2, 2245, Pitch_bend_c, 0, 8212
2, 2246, Pitch_bend_c, 0, 8212
2, 2247, Pitch_bend_c, 0, 8212
2, 2248, Pitch_bend_c, 0, 8210
2, 2249, Pitch_bend_c, 0, 8210
2, 2250, Pitch_bend_c, 0, 8210
2, 2251, Pitch_bend_c, 0, 8207
2, 2252, Pitch_bend_c, 0, 8207
2, 2253, Pitch_bend_c, 0, 8207
2, 2254, Pitch_bend_c, 0, 8205
2, 2255, Pitch_bend_c, 0, 8205
2, 2256, Pitch_bend_c, 0, 8200
2, 2257, Pitch_bend_c, 0, 8202
2, 2258, Pitch_bend_c, 0, 8197
2, 2259, Pitch_bend_c, 0, 8197
2, 2260, Pitch_bend_c, 0, 8200
2, 2261, Pitch_bend_c, 0, 8197
2, 2262, Pitch_bend_c, 0, 8192
2, 2263, Pitch_bend_c, 0, 8195
2, 2264, Pitch_bend_c, 0, 8192
2, 2265, Pitch_bend_c, 0, 8187
2, 2266, Pitch_bend_c, 0, 8187
2, 2267, Pitch_bend_c, 0, 8190
2, 2268, Pitch_bend_c, 0, 8190
2, 2269, Pitch_bend_c, 0, 8190
2, 2270, Pitch_bend_c, 0, 8192
2, 2271, Pitch_bend_c, 0, 8192
2, 2272, Pitch_bend_c, 0, 8187
2, 2273, Pitch_bend_c, 0, 8182
2, 2274, Pitch_bend_c, 0, 8187
2, 2275, Pitch_bend_c, 0, 8187
2, 2276, Pitch_bend_c, 0, 8187
2, 2277, Pitch_bend_c, 0, 8187
2, 2278, Pitch_bend_c, 0, 8182
2, 2279, Pitch_bend_c, 0, 8182
2, 2280, Pitch_bend_c, 0, 8182
2, 2281, Pitch_bend_c, 0, 8185
2, 2282, Pitch_bend_c, 0, 8182
2, 2283, Pitch_bend_c, 0, 8187
2, 2284, Pitch_bend_c, 0, 8190
2, 2285, Pitch_bend_c, 0, 8190
2, 2286, Pitch_bend_c, 0, 8190
2, 2287, Pitch_bend_c, 0, 8192
2, 2288, Pitch_bend_c, 0, 8192
2, 2289, Pitch_bend_c, 0, 8190
2, 2290, Pitch_bend_c, 0, 8197
2, 2291, Pitch_bend_c, 0, 8195
2, 2292, Pitch_bend_c, 0, 8197
2, 2293, Pitch_bend_c, 0, 8200
2, 2294, Pitch_bend_c, 0, 8200
2, 2295, Pitch_bend_c, 0, 8200
2, 2296, Pitch_bend_c, 0, 8202
2, 2297, Pitch_bend_c, 0, 8200
2, 2298, Pitch_bend_c, 0, 8202
2, 2299, Pitch_bend_c, 0, 8205
2, 2300, Pitch_bend_c, 0, 8205
2, 2301, Pitch_bend_c, 0, 8205
2, 2302, Pitch_bend_c, 0, 8210
2, 2303, Pitch_bend_c, 0, 8207
2, 2304, Pitch_bend_c, 0, 8212
2, 2305, Pitch_bend_c, 0, 8212
2, 2306, Pitch_bend_c, 0, 8212
2, 2307, Pitch_bend_c, 0, 8214
2, 2308, Pitch_bend_c, 0, 8217
2, 2309, Pitch_bend_c, 0, 8214
2, 2310, Pitch_bend_c, 0, 8224
2, 2311, Pitch_bend_c, 0, 8219
2, 2312, Pitch_bend_c, 0, 8222
2, 2313, Pitch_bend_c, 0, 8222
2, 2314, Pitch_bend_c, 0, 8222
2, 2315, Pitch_bend_c, 0, 8217
2, 2316, Pitch_bend_c, 0, 8227
2, 2317, Pitch_bend_c, 0, 8222
2, 2318, Pitch_bend_c, 0, 8229
2, 2319, Pitch_bend_c, 0, 8229
2, 2320, Pitch_bend_c, 0, 8222
2, 2321, Pitch_bend_c, 0, 8227
2, 2322, Pitch_bend_c, 0, 8224
2, 2323, Pitch_bend_c, 0, 8227
2, 2324, Pitch_bend_c, 0, 8227
2, 2325, Pitch_bend_c, 0, 8232
2, 2326, Pitch_bend_c, 0, 8229
2, 2327, Pitch_bend_c, 0, 8234
2, 2328, Pitch_bend_c, 0, 8229
2, 2329, Pitch_bend_c, 0, 8232
2, 2330, Pitch_bend_c, 0, 8232
2, 2331, Pitch_bend_c, 0, 8232
2, 2332, Pitch_bend_c, 0, 8232
2, 2333, Pitch_bend_c, 0, 8239
2, 2334, Pitch_bend_c, 0, 8227
2, 2335, Pitch_bend_c, 0, 8229
2, 2336, Pitch_bend_c, 0, 8224
2, 2337, Pitch_bend_c, 0, 8224
2, 2338, Pitch_bend_c, 0, 8227
2, 2339, Pitch_bend_c, 0, 8229
2, 2340, Pitch_bend_c, 0, 8227
2, 2341, Pitch_bend_c, 0, 8227
2, 2342, Pitch_bend_c, 0, 8222
2, 2343, Pitch_bend_c, 0, 8212
2, 2344, Pitch_bend_c, 0, 8214
2, 2345, Pitch_bend_c, 0, 8212
2, 2346, Pitch_bend_c, 0, 8214
2, 2347, Pitch_bend_c, 0, 8222
2, 2348, Pitch_bend_c, 0, 8212
2, 2349, Pitch_bend_c, 0, 8212
2, 2350, Pitch_bend_c, 0, 8205
2, 2351, Pitch_bend_c, 0, 8200
2, 2352, Pitch_bend_c, 0, 8205
2, 2353, Pitch_bend_c, 0, 8207
2, 2354, Pitch_bend_c, 0, 8205
2, 2355, Pitch_bend_c, 0, 8205
2, 2356, Pitch_bend_c, 0, 8205
2, 2357, Pitch_bend_c, 0, 8192
2, 2358, Pitch_bend_c, 0, 8192
2, 2359, Pitch_bend_c, 0, 8185
2, 2360, Pitch_bend_c, 0, 8187
2, 2361, Pitch_bend_c, 0, 8190
2, 2362, Pitch_bend_c, 0, 8190
2, 2363, Pitch_bend_c, 0, 8185
2, 2364, Pitch_bend_c, 0, 8185
2, 2365, Pitch_bend_c, 0, 8178
2, 2366, Pitch_bend_c, 0, 8175
2, 2367, Pitch_bend_c, 0, 8175
2, 2368, Pitch_bend_c, 0, 8175
2, 2369, Pitch_bend_c, 0, 8180
2, 2370, Pitch_bend_c, 0, 8180
2, 2371, Pitch_bend_c, 0, 8178
2, 2372, Pitch_bend_c, 0, 8175
2, 2373, Pitch_bend_c, 0, 8178
2, 2374, Pitch_bend_c, 0, 8173
2, 2375, Pitch_bend_c, 0, 8190
2, 2376, Pitch_bend_c, 0, 8187
2, 2377, Pitch_bend_c, 0, 8182
2, 2378, Pitch_bend_c, 0, 8190
2, 2379, Pitch_bend_c, 0, 8178
2, 2380, Pitch_bend_c, 0, 8180
2, 2381, Pitch_bend_c, 0, 8175
2, 2382, Pitch_bend_c, 0, 8180
2, 2383, Pitch_bend_c, 0, 8178
2, 2384, Pitch_bend_c, 0, 8180
2, 2385, Pitch_bend_c, 0, 8175
2, 2386, Pitch_bend_c, 0, 8168
2, 2387, Pitch_bend_c, 0, 8165
2, 2388, Pitch_bend_c, 0, 8158
2, 2389, Pitch_bend_c, 0, 8165
2, 2390, Pitch_bend_c, 0, 8158
2, 2391, Pitch_bend_c, 0, 8168
2, 2392, Pitch_bend_c, 0, 8155
2, 2393, Pitch_bend_c, 0, 8155
2, 2394, Pitch_bend_c, 0, 8143
2, 2395, Pitch_bend_c, 0, 8141
2, 2396, Pitch_bend_c, 0, 8141
2, 2397, Pitch_bend_c, 0, 8133
2, 2398, Pitch_bend_c, 0, 8165
2, 2400, Note_off_c, 0, 83, 102
2, 2400, Note_on_c, 0, 83, 102
2, 2400, Pitch_bend_c, 0, 8178
2, 2401, Pitch_bend_c, 0, 8180
2, 2402, Pitch_bend_c, 0, 8187
2, 2403, Pitch_bend_c, 0, 8173
2, 2404, Pitch_bend_c, 0, 8197
2, 2405, Pitch_bend_c, 0, 8195
2, 2406, Pitch_bend_c, 0, 8212
2, 2407, Pitch_bend_c, 0, 8202
2, 2408, Pitch_bend_c, 0, 8210
2, 2409, Pitch_bend_c, 0, 8217
2, 2410, Pitch_bend_c, 0, 8212
2, 2411, Pitch_bend_c, 0, 8217
2, 2412, Pitch_bend_c, 0, 8214
2, 2413, Pitch_bend_c, 0, 8222
2, 2414, Pitch_bend_c, 0, 8219
2, 2415, Pitch_bend_c, 0, 8232
2, 2416, Pitch_bend_c, 0, 8234
2, 2417, Pitch_bend_c, 0, 8229
2, 2418, Pitch_bend_c, 0, 8234
2, 2419, Pitch_bend_c, 0, 8234
2, 2420, Pitch_bend_c, 0, 8239
2, 2421, Pitch_bend_c, 0, 8244
2, 2422, Pitch_bend_c, 0, 8249
2, 2423, Pitch_bend_c, 0, 8246
2, 2424, Pitch_bend_c, 0, 8251
2, 2425, Pitch_bend_c, 0, 8251
2, 2426, Pitch_bend_c, 0, 8251
2, 2427, Pitch_bend_c, 0, 8251
2, 2428, Pitch_bend_c, 0, 8251
2, 2429, Pitch_bend_c, 0, 8256
2, 2430, Pitch_bend_c, 0, 8259
2, 2431, Pitch_bend_c, 0, 8259
2, 2432, Pitch_bend_c, 0, 8256
2, 2433, Pitch_bend_c, 0, 8259
2, 2434, Pitch_bend_c, 0, 8256
2, 2435, Pitch_bend_c, 0, 8261
2, 2436, Pitch_bend_c, 0, 8259
2, 2437, Pitch_bend_c, 0, 8261
2, 2438, Pitch_bend_c, 0, 8259
2, 2439, Pitch_bend_c, 0, 8259
2, 2440, Pitch_bend_c, 0, 8259
2, 2441, Pitch_bend_c, 0, 8259
2, 2442, Pitch_bend_c, 0, 8259
2, 2443, Pitch_bend_c, 0, 8261
2, 2444, Pitch_bend_c, 0, 8264
2, 2445, Pitch_bend_c, 0, 8264
2, 2446, Pitch_bend_c, 0, 8268
2, 2447, Pitch_bend_c, 0, 8266
2, 2448, Pitch_bend_c, 0, 8266
2, 2449, Pitch_bend_c, 0, 8266
2, 2450, Pitch_bend_c, 0, 8266
2, 2451, Pitch_bend_c, 0, 8264
2, 2452, Pitch_bend_c, 0, 8266
2, 2453, Pitch_bend_c, 0, 8261
2, 2454, Pitch_bend_c, 0, 8261
2, 2455, Pitch_bend_c, 0, 8261
2, 2456, Pitch_bend_c, 0, 8259
2, 2457, Pitch_bend_c, 0, 8259
2, 2458, Pitch_bend_c, 0, 8259
2, 2459, Pitch_bend_c, 0, 8259
2, 2460, Pitch_bend_c, 0, 8261
2, 2461, Pitch_bend_c, 0, 8259
2, 2462, Pitch_bend_c, 0, 8256
2, 2463, Pitch_bend_c, 0, 8254
2, 2464, Pitch_bend_c, 0, 8254
2, 2465, Pitch_bend_c, 0, 8249
2, 2466, Pitch_bend_c, 0, 8251
2, 2467, Pitch_bend_c, 0, 8249
2, 2468, Pitch_bend_c, 0, 8249
2, 2469, Pitch_bend_c, 0, 8244
2, 2470, Pitch_bend_c, 0, 8244
2, 2471, Pitch_bend_c, 0, 8241
2, 2472, Pitch_bend_c, 0, 8241
2, 2473, Pitch_bend_c, 0, 8239
2, 2474, Pitch_bend_c, 0, 8241
2, 2475, Pitch_bend_c, 0, 8239
2, 2476, Pitch_bend_c, 0, 8234
2, 2477, Pitch_bend_c, 0, 8232
2, 2478, Pitch_bend_c, 0, 8232
2, 2479, Pitch_bend_c, 0, 8224
2, 2480, Pitch_bend_c, 0, 8224
2, 2481, Pitch_bend_c, 0, 8222
2, 2482, Pitch_bend_c, 0, 8222
2, 2483, Pitch_bend_c, 0, 8224
2, 2484, Pitch_bend_c, 0, 8222
2, 2485, Pitch_bend_c, 0, 8222
2, 2486, Pitch_bend_c, 0, 8222
2, 2487, Pitch_bend_c, 0, 8222
2, 2488, Pitch_bend_c, 0, 8222
2, 2489, Pitch_bend_c, 0, 8222
2, 2490, Pitch_bend_c, 0, 8222
2, 2491, Pitch_bend_c, 0, 8222
2, 2492, Pitch_bend_c, 0, 8219
2, 2493, Pitch_bend_c, 0, 8219
2, 2494, Pitch_bend_c, 0, 8219
2, 2495, Pitch_bend_c, 0, 8219
2, 2496, Pitch_bend_c, 0, 8219
2, 2497, Pitch_bend_c, 0, 8222
2, 2498, Pitch_bend_c, 0, 8222
2, 2499, Pitch_bend_c, 0, 8217
2, 2500, Pitch_bend_c, 0, 8217
2, 2501, Pitch_bend_c, 0, 8219
2, 2502, Pitch_bend_c, 0, 8222
2, 2503, Pitch_bend_c, 0, 8219
2, 2504, Pitch_bend_c, 0, 8222
2, 2505, Pitch_bend_c, 0, 8222
2, 2506, Pitch_bend_c, 0, 8219
2, 2507, Pitch_bend_c, 0, 8222
2, 2508, Pitch_bend_c, 0, 8219
2, 2509, Pitch_bend_c, 0, 8222
2, 2510, Pitch_bend_c, 0, 8222
2, 2511, Pitch_bend_c, 0, 8224
2, 2512, Pitch_bend_c, 0, 8224
2, 2513, Pitch_bend_c, 0, 8224
2, 2514, Pitch_bend_c, 0, 8222
2, 2515, Pitch_bend_c, 0, 8222
2, 2516, Pitch_bend_c, 0, 8219
2, 2517, Pitch_bend_c, 0, 8222
2, 2518, Pitch_bend_c, 0, 8222
2, 2519, Pitch_bend_c, 0, 8222
2, 2520, Pitch_bend_c, 0, 8219
2, 2521, Pitch_bend_c, 0, 8222
2, 2522, Pitch_bend_c, 0, 8222
2, 2523, Pitch_bend_c, 0, 8222
2, 2524, Pitch_bend_c, 0, 8222
2, 2525, Pitch_bend_c, 0, 8224
2, 2526, Pitch_bend_c, 0, 8227
2, 2527, Pitch_bend_c, 0, 8224
2, 2528, Pitch_bend_c, 0, 8224
2, 2529, Pitch_bend_c, 0, 8224
2, 2530, Pitch_bend_c, 0, 8224
2, 2531, Pitch_bend_c, 0, 8229
2, 2532, Pitch_bend_c, 0, 8229
2, 2533, Pitch_bend_c, 0, 8232
2, 2534, Pitch_bend_c, 0, 8232
2, 2535, Pitch_bend_c, 0, 8232
2, 2536, Pitch_bend_c, 0, 8234
2, 2537, Pitch_bend_c, 0, 8234
2, 2538, Pitch_bend_c, 0, 8237
2, 2539, Pitch_bend_c, 0, 8237
2, 2540, Pitch_bend_c, 0, 8244
2, 2541, Pitch_bend_c, 0, 8241
2, 2542, Pitch_bend_c, 0, 8244
2, 2543, Pitch_bend_c, 0, 8244
2, 2544, Pitch_bend_c, 0, 8244
2, 2545, Pitch_bend_c, 0, 8244
2, 2546, Pitch_bend_c, 0, 8249
2, 2547, Pitch_bend_c, 0, 8246
2, 2548, Pitch_bend_c, 0, 8251
2, 2549, Pitch_bend_c, 0, 8249
2, 2550, Pitch_bend_c, 0, 8249
2, 2551, Pitch_bend_c, 0, 8246
2, 2552, Pitch_bend_c, 0, 8249
2, 2553, Pitch_bend_c, 0, 8246
2, 2554, Pitch_bend_c, 0, 8249
2, 2555, Pitch_bend_c, 0, 8246
2, 2556, Pitch_bend_c, 0, 8246
2, 2557, Pitch_bend_c, 0, 8246
2, 2558, Pitch_bend_c, 0, 8246
2, 2559, Pitch_bend_c, 0, 8244
2, 2560, Pitch_bend_c, 0, 8244
2, 2561, Pitch_bend_c, 0, 8241
2, 2562, Pitch_bend_c, 0, 8241
2, 2563, Pitch_bend_c, 0, 8241
2, 2564, Pitch_bend_c, 0, 8239
2, 2565, Pitch_bend_c, 0, 8241
2, 2566, Pitch_bend_c, 0, 8237
2, 2567, Pitch_bend_c, 0, 8237
2, 2568, Pitch_bend_c, 0, 8232
2, 2569, Pitch_bend_c, 0, 8232
2, 2570, Pitch_bend_c, 0, 8232
2, 2571, Pitch_bend_c, 0, 8232
2, 2572, Pitch_bend_c, 0, 8229
2, 2573, Pitch_bend_c, 0, 8229
2, 2574, Pitch_bend_c, 0, 8227
2, 2575, Pitch_bend_c, 0, 8224
2, 2576, Pitch_bend_c, 0, 8224
2, 2577, Pitch_bend_c, 0, 8222
2, 2578, Pitch_bend_c, 0, 8222
2, 2579, Pitch_bend_c, 0, 8219
2, 2580, Pitch_bend_c, 0, 8219
2, 2581, Pitch_bend_c, 0, 8217
2, 2582, Pitch_bend_c, 0, 8214
2, 2583, Pitch_bend_c, 0, 8217
2, 2584, Pitch_bend_c, 0, 8214
2, 2585, Pitch_bend_c, 0, 8214
2, 2586, Pitch_bend_c, 0, 8212
2, 2587, Pitch_bend_c, 0, 8214
2, 2588, Pitch_bend_c, 0, 8210
2, 2589, Pitch_bend_c, 0, 8210
2, 2590, Pitch_bend_c, 0, 8207
2, 2591, Pitch_bend_c, 0, 8207
2, 2592, Pitch_bend_c, 0, 8207
2, 2593, Pitch_bend_c, 0, 8207
2, 2594, Pitch_bend_c, 0, 8210
2, 2595, Pitch_bend_c, 0, 8207
2, 2596, Pitch_bend_c, 0, 8207
2, 2597, Pitch_bend_c, 0, 8205
2, 2598, Pitch_bend_c, 0, 8205
2, 2599, Pitch_bend_c, 0, 8205
2, 2600, Pitch_bend_c, 0, 8205
2, 2601, Pitch_bend_c, 0, 8205
2, 2602, Pitch_bend_c, 0, 8202
2, 2603, Pitch_bend_c, 0, 8205
2, 2604, Pitch_bend_c, 0, 8202
2, 2605, Pitch_bend_c, 0, 8202
2, 2606, Pitch_bend_c, 0, 8202
2, 2607, Pitch_bend_c, 0, 8202
2, 2608, Pitch_bend_c, 0, 8200
2, 2609, Pitch_bend_c, 0, 8205
2, 2610, Pitch_bend_c, 0, 8205
2, 2611, Pitch_bend_c, 0, 8214
2, 2612, Pitch_bend_c, 0, 8219
2, 2613, Pitch_bend_c, 0, 8227
2, 2614, Pitch_bend_c, 0, 8239
2, 2615, Pitch_bend_c, 0, 8251
2, 2616, Pitch_bend_c, 0, 8271
2, 2617, Pitch_bend_c, 0, 8283
2, 2618, Pitch_bend_c, 0, 8300
2, 2619, Pitch_bend_c, 0, 8325
2, 2620, Pitch_bend_c, 0, 8345
2, 2621, Pitch_bend_c, 0, 8372
2, 2622, Pitch_bend_c, 0, 8391
2, 2623, Pitch_bend_c, 0, 8423
2, 2624, Pitch_bend_c, 0, 8445
2, 2625, Pitch_bend_c, 0, 8465
2, 2626, Pitch_bend_c, 0, 8504
2, 2627, Pitch_bend_c, 0, 8527
2, 2628, Pitch_bend_c, 0, 8573
2, 2629, Pitch_bend_c, 0, 8590
2, 2630, Pitch_bend_c, 0, 8642
2, 2631, Pitch_bend_c, 0, 8674
2, 2632, Pitch_bend_c, 0, 8730
2, 2633, Pitch_bend_c, 0, 8762
2, 2634, Pitch_bend_c, 0, 8799
2, 2635, Pitch_bend_c, 0, 8868
2, 2636, Pitch_bend_c, 0, 8910
2, 2637, Pitch_bend_c, 0, 8988
2, 2638, Pitch_bend_c, 0, 9033
2, 2639, Pitch_bend_c, 0, 9119
2, 2640, Pitch_bend_c, 0, 9156
2, 2641, Pitch_bend_c, 0, 9207
2, 2642, Pitch_bend_c, 0, 9305
2, 2643, Pitch_bend_c, 0, 9340
2, 2644, Pitch_bend_c, 0, 9438
2, 2645, Pitch_bend_c, 0, 9485
2, 2646, Pitch_bend_c, 0, 9581
2, 2647, Pitch_bend_c, 0, 9630
2, 2648, Pitch_bend_c, 0, 9679
2, 2649, Pitch_bend_c, 0, 9777
2, 2650, Pitch_bend_c, 0, 9822
2, 2651, Pitch_bend_c, 0, 9910
2, 2652, Pitch_bend_c, 0, 9949
2, 2653, Pitch_bend_c, 0, 10030
2, 2654, Pitch_bend_c, 0, 10070
2, 2655, Pitch_bend_c, 0, 10143
2, 2656, Pitch_bend_c, 0, 10183
2, 2657, Pitch_bend_c, 0, 10220
2, 2658, Pitch_bend_c, 0, 10293
2, 2659, Pitch_bend_c, 0, 10338
2, 2660, Pitch_bend_c, 0, 10414
2, 2661, Pitch_bend_c, 0, 10446
2, 2662, Pitch_bend_c, 0, 10519
2, 2663, Pitch_bend_c, 0, 10554
2, 2664, Pitch_bend_c, 0, 10588
2, 2665, Pitch_bend_c, 0, 10662
2, 2666, Pitch_bend_c, 0, 10706
2, 2667, Pitch_bend_c, 0, 10797
2, 2668, Pitch_bend_c, 0, 10839
2, 2669, Pitch_bend_c, 0, 10944
2, 2670, Pitch_bend_c, 0, 10996
2, 2671, Pitch_bend_c, 0, 11043
2, 2672, Pitch_bend_c, 0, 11131
2, 2673, Pitch_bend_c, 0, 11173
2, 2674, Pitch_bend_c, 0, 11247
2, 2675, Pitch_bend_c, 0, 11281
2, 2676, Pitch_bend_c, 0, 11350
2, 2677, Pitch_bend_c, 0, 11389
2, 2678, Pitch_bend_c, 0, 11441
2, 2679, Pitch_bend_c, 0, 11468
2, 2680, Pitch_bend_c, 0, 11483
2, 2681, Pitch_bend_c, 0, 11522
2, 2682, Pitch_bend_c, 0, 11547
2, 2683, Pitch_bend_c, 0, 11610
2, 2684, Pitch_bend_c, 0, 11647
2, 2685, Pitch_bend_c, 0, 11736
2, 2686, Pitch_bend_c, 0, 11787
2, 2687, Pitch_bend_c, 0, 11819
2, 2688, Pitch_bend_c, 0, 11866
2, 2689, Pitch_bend_c, 0, 11881
2, 2690, Pitch_bend_c, 0, 11898
2, 2691, Pitch_bend_c, 0, 11910
2, 2692, Pitch_bend_c, 0, 11952
2, 2693, Pitch_bend_c, 0, 11984
2, 2694, Pitch_bend_c, 0, 12050
2, 2695, Pitch_bend_c, 0, 12075
2, 2696, Pitch_bend_c, 0, 12102
2, 2697, Pitch_bend_c, 0, 12134
2, 2698, Pitch_bend_c, 0, 12146
2, 2699, Pitch_bend_c, 0, 12176
2, 2700, Pitch_bend_c, 0, 12188
2, 2701, Pitch_bend_c, 0, 12217
2, 2702, Pitch_bend_c, 0, 12232
2, 2703, Pitch_bend_c, 0, 12247
2, 2704, Pitch_bend_c, 0, 12271
2, 2705, Pitch_bend_c, 0, 12284
2, 2706, Pitch_bend_c, 0, 12321
2, 2707, Pitch_bend_c, 0, 12335
2, 2708, Pitch_bend_c, 0, 12367
2, 2709, Pitch_bend_c, 0, 12370
2, 2710, Pitch_bend_c, 0, 12375
2, 2711, Pitch_bend_c, 0, 12372
2, 2712, Pitch_bend_c, 0, 12372
2, 2713, Pitch_bend_c, 0, 12399
2, 2714, Pitch_bend_c, 0, 12421
2, 2715, Pitch_bend_c, 0, 12458
2, 2716, Pitch_bend_c, 0, 12463
2, 2717, Pitch_bend_c, 0, 12451
2, 2718, Pitch_bend_c, 0, 12439
2, 2719, Pitch_bend_c, 0, 12429
2, 2720, Pitch_bend_c, 0, 12434
2, 2721, Pitch_bend_c, 0, 12448
2, 2722, Pitch_bend_c, 0, 12493
2, 2723, Pitch_bend_c, 0, 12512
2, 2724, Pitch_bend_c, 0, 12512
2, 2725, Pitch_bend_c, 0, 12490
2, 2726, Pitch_bend_c, 0, 12475
2, 2727, Pitch_bend_c, 0, 12456
2, 2728, Pitch_bend_c, 0, 12463
2, 2729, Pitch_bend_c, 0, 12500
2, 2730, Pitch_bend_c, 0, 12520
2, 2731, Pitch_bend_c, 0, 12529
2, 2732, Pitch_bend_c, 0, 12520
2, 2733, Pitch_bend_c, 0, 12502
2, 2734, Pitch_bend_c, 0, 12473
2, 2735, Pitch_bend_c, 0, 12475
2, 2736, Pitch_bend_c, 0, 12500
2, 2737, Pitch_bend_c, 0, 12517
2, 2738, Pitch_bend_c, 0, 12542
2, 2739, Pitch_bend_c, 0, 12537
2, 2740, Pitch_bend_c, 0, 12500
2, 2741, Pitch_bend_c, 0, 12478
2, 2742, Pitch_bend_c, 0, 12473
2, 2743, Pitch_bend_c, 0, 12485
2, 2744, Pitch_bend_c, 0, 12507
2, 2745, Pitch_bend_c, 0, 12532
2, 2746, Pitch_bend_c, 0, 12532
2, 2747, Pitch_bend_c, 0, 12507
2, 2748, Pitch_bend_c, 0, 12493
2, 2749, Pitch_bend_c, 0, 12475
2, 2750, Pitch_bend_c, 0, 12478
2, 2751, Pitch_bend_c, 0, 12500
2, 2752, Pitch_bend_c, 0, 12537
2, 2753, Pitch_bend_c, 0, 12544
2, 2754, Pitch_bend_c, 0, 12525
2, 2755, Pitch_bend_c, 0, 12505
2, 2756, Pitch_bend_c, 0, 12483
2, 2757, Pitch_bend_c, 0, 12490
2, 2758, Pitch_bend_c, 0, 12502
2, 2759, Pitch_bend_c, 0, 12537
2, 2760, Pitch_bend_c, 0, 12547
2, 2761, Pitch_bend_c, 0, 12537
2, 2762, Pitch_bend_c, 0, 12520
2, 2763, Pitch_bend_c, 0, 12493
2, 2764, Pitch_bend_c, 0, 12493
2, 2765, Pitch_bend_c, 0, 12500
2, 2766, Pitch_bend_c, 0, 12537
2, 2767, Pitch_bend_c, 0, 12554
2, 2768, Pitch_bend_c, 0, 12559
2, 2769, Pitch_bend_c, 0, 12542
2, 2770, Pitch_bend_c, 0, 12507
2, 2771, Pitch_bend_c, 0, 12500
2, 2772, Pitch_bend_c, 0, 12510
2, 2773, Pitch_bend_c, 0, 12542
2, 2774, Pitch_bend_c, 0, 12554
2, 2775, Pitch_bend_c, 0, 12566
2, 2776, Pitch_bend_c, 0, 12559
2, 2777, Pitch_bend_c, 0, 12532
2, 2778, Pitch_bend_c, 0, 12520
2, 2779, Pitch_bend_c, 0, 12522
2, 2780, Pitch_bend_c, 0, 12537
2, 2781, Pitch_bend_c, 0, 12554
2, 2782, Pitch_bend_c, 0, 12581
2, 2783, Pitch_bend_c, 0, 12576
2, 2784, Pitch_bend_c, 0, 12549
2, 2785, Pitch_bend_c, 0, 12537
2, 2786, Pitch_bend_c, 0, 12532
2, 2787, Pitch_bend_c, 0, 12537
2, 2788, Pitch_bend_c, 0, 12554
2, 2789, Pitch_bend_c, 0, 12571
2, 2790, Pitch_bend_c, 0, 12571
2, 2791, Pitch_bend_c, 0, 12559
2, 2792, Pitch_bend_c, 0, 12554
2, 2793, Pitch_bend_c, 0, 12542
2, 2794, Pitch_bend_c, 0, 12547
2, 2795, Pitch_bend_c, 0, 12552
2, 2796, Pitch_bend_c, 0, 12571
2, 2797, Pitch_bend_c, 0, 12574
2, 2798, Pitch_bend_c, 0, 12554
2, 2799, Pitch_bend_c, 0, 12542
2, 2800, Pitch_bend_c, 0, 12525
2, 2801, Pitch_bend_c, 0, 12529
2, 2802, Pitch_bend_c, 0, 12547
2, 2803, Pitch_bend_c, 0, 12552
2, 2804, Pitch_bend_c, 0, 12559
2, 2805, Pitch_bend_c, 0, 12544
2, 2806, Pitch_bend_c, 0, 12537
2, 2807, Pitch_bend_c, 0, 12517
2, 2808, Pitch_bend_c, 0, 12515
2, 2809, Pitch_bend_c, 0, 12525
2, 2810, Pitch_bend_c, 0, 12532
2, 2811, Pitch_bend_c, 0, 12537
2, 2812, Pitch_bend_c, 0, 12537
2, 2813, Pitch_bend_c, 0, 12527
2, 2814, Pitch_bend_c, 0, 12505
2, 2815, Pitch_bend_c, 0, 12498
2, 2816, Pitch_bend_c, 0, 12505
2, 2817, Pitch_bend_c, 0, 12512
2, 2818, Pitch_bend_c, 0, 12525
2, 2819, Pitch_bend_c, 0, 12525
2, 2820, Pitch_bend_c, 0, 12517
2, 2821, Pitch_bend_c, 0, 12500
2, 2822, Pitch_bend_c, 0, 12490
2, 2823, Pitch_bend_c, 0, 12480
2, 2824, Pitch_bend_c, 0, 12480
2, 2825, Pitch_bend_c, 0, 12488
2, 2826, Pitch_bend_c, 0, 12490
2, 2827, Pitch_bend_c, 0, 12490
2, 2828, Pitch_bend_c, 0, 12483
2, 2829, Pitch_bend_c, 0, 12478
2, 2830, Pitch_bend_c, 0, 12478
2, 2831, Pitch_bend_c, 0, 12480
2, 2832, Pitch_bend_c, 0, 12488
2, 2833, Pitch_bend_c, 0, 12490
2, 2834, Pitch_bend_c, 0, 12490
2, 2835, Pitch_bend_c, 0, 12483
2, 2836, Pitch_bend_c, 0, 12475
2, 2837, Pitch_bend_c, 0, 12475
2, 2838, Pitch_bend_c, 0, 12475
2, 2839, Pitch_bend_c, 0, 12490
2, 2840, Pitch_bend_c, 0, 12493
2, 2841, Pitch_bend_c, 0, 12495
2, 2842, Pitch_bend_c, 0, 12493
2, 2843, Pitch_bend_c, 0, 12483
2, 2844, Pitch_bend_c, 0, 12446
2, 2845, Pitch_bend_c, 0, 12429
2, 2846, Pitch_bend_c, 0, 12382
2, 2847, Pitch_bend_c, 0, 12345
2, 2848, Pitch_bend_c, 0, 12262
2, 2849, Pitch_bend_c, 0, 12222
2, 2850, Pitch_bend_c, 0, 12163
2, 2851, Pitch_bend_c, 0, 12060
2, 2852, Pitch_bend_c, 0, 12018
2, 2853, Pitch_bend_c, 0, 11930
2, 2854, Pitch_bend_c, 0, 11888
2, 2855, Pitch_bend_c, 0, 11819
2, 2856, Pitch_bend_c, 0, 11785
2, 2857, Pitch_bend_c, 0, 11760
2, 2858, Pitch_bend_c, 0, 11687
2, 2859, Pitch_bend_c, 0, 11660
2, 2860, Pitch_bend_c, 0, 11586
2, 2861, Pitch_bend_c, 0, 11556
2, 2862, Pitch_bend_c, 0, 11480
2, 2863, Pitch_bend_c, 0, 11431
2, 2864, Pitch_bend_c, 0, 11345
2, 2865, Pitch_bend_c, 0, 11284
2, 2866, Pitch_bend_c, 0, 11239
2, 2867, Pitch_bend_c, 0, 11114
2, 2868, Pitch_bend_c, 0, 11055
2, 2869, Pitch_bend_c, 0, 10888
2, 2870, Pitch_bend_c, 0, 10792
2, 2871, Pitch_bend_c, 0, 10576
2, 2872, Pitch_bend_c, 0, 10436
2, 2873, Pitch_bend_c, 0, 10296
2, 2874, Pitch_bend_c, 0, 9932
2, 2875, Pitch_bend_c, 0, 9787
2, 2876, Pitch_bend_c, 0, 9391
2, 2877, Pitch_bend_c, 0, 9271
2, 2878, Pitch_bend_c, 0, 8969
2, 2880, Note_off_c, 0, 83, 102
2, 2880, Note_on_c, 0, 83, 102
2, 2880, Pitch_bend_c, 0, 8603
2, 2881, Pitch_bend_c, 0, 8536
2, 2882, Pitch_bend_c, 0, 8463
2, 2883, Pitch_bend_c, 0, 8377
2, 2884, Pitch_bend_c, 0, 8364
2, 2885, Pitch_bend_c, 0, 8350
2, 2886, Pitch_bend_c, 0, 8347
2, 2887, Pitch_bend_c, 0, 8335
2, 2888, Pitch_bend_c, 0, 8330
2, 2889, Pitch_bend_c, 0, 8305
2, 2890, Pitch_bend_c, 0, 8308
2, 2891, Pitch_bend_c, 0, 8303
2, 2892, Pitch_bend_c, 0, 8315
2, 2893, Pitch_bend_c, 0, 8308
2, 2894, Pitch_bend_c, 0, 8308
2, 2895, Pitch_bend_c, 0, 8300
2, 2896, Pitch_bend_c, 0, 8291
2, 2897, Pitch_bend_c, 0, 8283
2, 2898, Pitch_bend_c, 0, 8281
2, 2899, Pitch_bend_c, 0, 8288
2, 2900, Pitch_bend_c, 0, 8293
2, 2901, Pitch_bend_c, 0, 8298
2, 2902, Pitch_bend_c, 0, 8298
2, 2903, Pitch_bend_c, 0, 8283
2, 2904, Pitch_bend_c, 0, 8283
2, 2905, Pitch_bend_c, 0, 8273
2, 2906, Pitch_bend_c, 0, 8278
2, 2907, Pitch_bend_c, 0, 8273
2, 2908, Pitch_bend_c, 0, 8278
2, 2909, Pitch_bend_c, 0, 8276
2, 2910, Pitch_bend_c, 0, 8271
2, 2911, Pitch_bend_c, 0, 8264
2, 2912, Pitch_bend_c, 0, 8264
2, 2913, Pitch_bend_c, 0, 8266
2, 2914, Pitch_bend_c, 0, 8268
2, 2915, Pitch_bend_c, 0, 8273
2, 2916, Pitch_bend_c, 0, 8271
2, 2917, Pitch_bend_c, 0, 8266
2, 2918, Pitch_bend_c, 0, 8261
2, 2919, Pitch_bend_c, 0, 8261
2, 2920, Pitch_bend_c, 0, 8261
2, 2921, Pitch_bend_c, 0, 8268
2, 2922, Pitch_bend_c, 0, 8271
2, 2923, Pitch_bend_c, 0, 8271
2, 2924, Pitch_bend_c, 0, 8266
2, 2925, Pitch_bend_c, 0, 8264
2, 2926, Pitch_bend_c, 0, 8261
2, 2927, Pitch_bend_c, 0, 8264
2, 2928, Pitch_bend_c, 0, 8268
2, 2929, Pitch_bend_c, 0, 8276
2, 2930, Pitch_bend_c, 0, 8278
2, 2931, Pitch_bend_c, 0, 8273
2, 2932, Pitch_bend_c, 0, 8268
2, 2933, Pitch_bend_c, 0, 8259
2, 2934, Pitch_bend_c, 0, 8256
2, 2935, Pitch_bend_c, 0, 8259
2, 2936, Pitch_bend_c, 0, 8266
2, 2937, Pitch_bend_c, 0, 8271
2, 2938, Pitch_bend_c, 0, 8273
2, 2939, Pitch_bend_c, 0, 8273
2, 2940, Pitch_bend_c, 0, 8264
2, 2941, Pitch_bend_c, 0, 8264
2, 2942, Pitch_bend_c, 0, 8264
2, 2943, Pitch_bend_c, 0, 8266
2, 2944, Pitch_bend_c, 0, 8266
2, 2945, Pitch_bend_c, 0, 8266
2, 2946, Pitch_bend_c, 0, 8266
2, 2947, Pitch_bend_c, 0, 8264
2, 2948, Pitch_bend_c, 0, 8261
2, 2949, Pitch_bend_c, 0, 8259
2, 2950, Pitch_bend_c, 0, 8261
2, 2951, Pitch_bend_c, 0, 8261
2, 2952, Pitch_bend_c, 0, 8261
2, 2953, Pitch_bend_c, 0, 8259
2, 2954, Pitch_bend_c, 0, 8256
2, 2955, Pitch_bend_c, 0, 8251
2, 2956, Pitch_bend_c, 0, 8249
2, 2957, Pitch_bend_c, 0, 8246
2, 2958, Pitch_bend_c, 0, 8249
2, 2959, Pitch_bend_c, 0, 8246
2, 2960, Pitch_bend_c, 0, 8246
2, 2961, Pitch_bend_c, 0, 8241
2, 2962, Pitch_bend_c, 0, 8241
2, 2963, Pitch_bend_c, 0, 8239
2, 2964, Pitch_bend_c, 0, 8237
2, 2965, Pitch_bend_c, 0, 8239
2, 2966, Pitch_bend_c, 0, 8237
2, 2967, Pitch_bend_c, 0, 8237
2, 2968, Pitch_bend_c, 0, 8234
2, 2969, Pitch_bend_c, 0, 8232
2, 2970, Pitch_bend_c, 0, 8229
2, 2971, Pitch_bend_c, 0, 8227
2, 2972, Pitch_bend_c, 0, 8227
2, 2973, Pitch_bend_c, 0, 8227
2, 2974, Pitch_bend_c, 0, 8229
2, 2975, Pitch_bend_c, 0, 8232
2, 2976, Pitch_bend_c, 0, 8232
2, 2977, Pitch_bend_c, 0, 8229
2, 2978, Pitch_bend_c, 0, 8224
2, 2979, Pitch_bend_c, 0, 8222
2, 2980, Pitch_bend_c, 0, 8224
2, 2981, Pitch_bend_c, 0, 8227
2, 2982, Pitch_bend_c, 0, 8234
2, 2983, Pitch_bend_c, 0, 8237
2, 2984, Pitch_bend_c, 0, 8237
2, 2985, Pitch_bend_c, 0, 8229
2, 2986, Pitch_bend_c, 0, 8222
2, 2987, Pitch_bend_c, 0, 8222
2, 2988, Pitch_bend_c, 0, 8224
2, 2989, Pitch_bend_c, 0, 8232
2, 2990, Pitch_bend_c, 0, 8232
2, 2991, Pitch_bend_c, 0, 8234
2, 2992, Pitch_bend_c, 0, 8232
2, 2993, Pitch_bend_c, 0, 8229
2, 2994, Pitch_bend_c, 0, 8222
2, 2995, Pitch_bend_c, 0, 8224
2, 2996, Pitch_bend_c, 0, 8227
2, 2997, Pitch_bend_c, 0, 8229
2, 2998, Pitch_bend_c, 0, 8234
2, 2999, Pitch_bend_c, 0, 8234
2, 3000, Pitch_bend_c, 0, 8227
2, 3001, Pitch_bend_c, 0, 8224
2, 3002, Pitch_bend_c, 0, 8224
2, 3003, Pitch_bend_c, 0, 8227
2, 3004, Pitch_bend_c, 0, 8227
2, 3005, Pitch_bend_c, 0, 8232
2, 3006, Pitch_bend_c, 0, 8229
2, 3007, Pitch_bend_c, 0, 8227
2, 3008, Pitch_bend_c, 0, 8224
2, 3009, Pitch_bend_c, 0, 8219
2, 3010, Pitch_bend_c, 0, 8224
2, 3011, Pitch_bend_c, 0, 8227
2, 3012, Pitch_bend_c, 0, 8232
2, 3013, Pitch_bend_c, 0, 8229
2, 3014, Pitch_bend_c, 0, 8224
2, 3015, Pitch_bend_c, 0, 8222
2, 3016, Pitch_bend_c, 0, 8217
2, 3017, Pitch_bend_c, 0, 8224
2, 3018, Pitch_bend_c, 0, 8234
2, 3019, Pitch_bend_c, 0, 8239
2, 3020, Pitch_bend_c, 0, 8246
2, 3021, Pitch_bend_c, 0, 8241
2, 3022, Pitch_bend_c, 0, 8239
2, 3023, Pitch_bend_c, 0, 8234
2, 3024, Pitch_bend_c, 0, 8237
2, 3025, Pitch_bend_c, 0, 8241
2, 3026, Pitch_bend_c, 0, 8249
2, 3027, Pitch_bend_c, 0, 8251
2, 3028, Pitch_bend_c, 0, 8246
2, 3029, Pitch_bend_c, 0, 8244
2, 3030, Pitch_bend_c, 0, 8239
2, 3031, Pitch_bend_c, 0, 8237
2, 3032, Pitch_bend_c, 0, 8241
2, 3033, Pitch_bend_c, 0, 8249
2, 3034, Pitch_bend_c, 0, 8254
2, 3035, Pitch_bend_c, 0, 8254
2, 3036, Pitch_bend_c, 0, 8254
2, 3037, Pitch_bend_c, 0, 8246
2, 3038, Pitch_bend_c, 0, 8244
2, 3039, Pitch_bend_c, 0, 8239
2, 3040, Pitch_bend_c, 0, 8241
2, 3041, Pitch_bend_c, 0, 8244
2, 3042, Pitch_bend_c, 0, 8246
2, 3043, Pitch_bend_c, 0, 8246
2, 3044, Pitch_bend_c, 0, 8244
2, 3045, Pitch_bend_c, 0, 8244
2, 3046, Pitch_bend_c, 0, 8239
2, 3047, Pitch_bend_c, 0, 8241
2, 3048, Pitch_bend_c, 0, 8241
2, 3049, Pitch_bend_c, 0, 8239
2, 3050, Pitch_bend_c, 0, 8237
2, 3051, Pitch_bend_c, 0, 8234
2, 3052, Pitch_bend_c, 0, 8229
2, 3053, Pitch_bend_c, 0, 8229
2, 3054, Pitch_bend_c, 0, 8229
2, 3055, Pitch_bend_c, 0, 8232
2, 3056, Pitch_bend_c, 0, 8229
2, 3057, Pitch_bend_c, 0, 8227
2, 3058, Pitch_bend_c, 0, 8227
2, 3059, Pitch_bend_c, 0, 8222
2, 3060, Pitch_bend_c, 0, 8222
2, 3061, Pitch_bend_c, 0, 8222
2, 3062, Pitch_bend_c, 0, 8224
2, 3063, Pitch_bend_c, 0, 8222
2, 3064, Pitch_bend_c, 0, 8222
2, 3065, Pitch_bend_c, 0, 8217
2, 3066, Pitch_bend_c, 0, 8214
2, 3067, Pitch_bend_c, 0, 8212
2, 3068, Pitch_bend_c, 0, 8212
2, 3069, Pitch_bend_c, 0, 8210
2, 3070, Pitch_bend_c, 0, 8212
2, 3071, Pitch_bend_c, 0, 8210
2, 3072, Pitch_bend_c, 0, 8212
2, 3073, Pitch_bend_c, 0, 8212
2, 3074, Pitch_bend_c, 0, 8212
2, 3075, Pitch_bend_c, 0, 8210
2, 3076, Pitch_bend_c, 0, 8205
2, 3077, Pitch_bend_c, 0, 8202
2, 3078, Pitch_bend_c, 0, 8202
2, 3079, Pitch_bend_c, 0, 8200
2, 3080, Pitch_bend_c, 0, 8207
2, 3081, Pitch_bend_c, 0, 8205
2, 3082, Pitch_bend_c, 0, 8207
2, 3083, Pitch_bend_c, 0, 8205
2, 3084, Pitch_bend_c, 0, 8205
2, 3085, Pitch_bend_c, 0, 8197
2, 3086, Pitch_bend_c, 0, 8197
2, 3087, Pitch_bend_c, 0, 8192
2, 3088, Pitch_bend_c, 0, 8195
2, 3089, Pitch_bend_c, 0, 8197
2, 3090, Pitch_bend_c, 0, 8197
2, 3091, Pitch_bend_c, 0, 8200
2, 3092, Pitch_bend_c, 0, 8192
2, 3093, Pitch_bend_c, 0, 8192
2, 3094, Pitch_bend_c, 0, 8187
2, 3095, Pitch_bend_c, 0, 8192
2, 3096, Pitch_bend_c, 0, 8195
2, 3097, Pitch_bend_c, 0, 8202
2, 3098, Pitch_bend_c, 0, 8202
2, 3099, Pitch_bend_c, 0, 8200
2, 3100, Pitch_bend_c, 0, 8195
2, 3101, Pitch_bend_c, 0, 8195
2, 3102, Pitch_bend_c, 0, 8192
2, 3103, Pitch_bend_c, 0, 8202
2, 3104, Pitch_bend_c, 0, 8202
2, 3105, Pitch_bend_c, 0, 8202
2, 3106, Pitch_bend_c, 0, 8205
2, 3107, Pitch_bend_c, 0, 8200
2, 3108, Pitch_bend_c, 0, 8197
2, 3109, Pitch_bend_c, 0, 8197
2, 3110, Pitch_bend_c, 0, 8200
2, 3111, Pitch_bend_c, 0, 8200
2, 3112, Pitch_bend_c, 0, 8200
2, 3113, Pitch_bend_c, 0, 8197
2, 3114, Pitch_bend_c, 0, 8195
2, 3115, Pitch_bend_c, 0, 8190
2, 3116, Pitch_bend_c, 0, 8190
2, 3117, Pitch_bend_c, 0, 8197
2, 3118, Pitch_bend_c, 0, 8197
2, 3119, Pitch_bend_c, 0, 8202
2, 3120, Pitch_bend_c, 0, 8200
2, 3121, Pitch_bend_c, 0, 8197
2, 3122, Pitch_bend_c, 0, 8195
2, 3123, Pitch_bend_c, 0, 8192
2, 3124, Pitch_bend_c, 0, 8195
2, 3125, Pitch_bend_c, 0, 8195
2, 3126, Pitch_bend_c, 0, 8200
2, 3127, Pitch_bend_c, 0, 8200
2, 3128, Pitch_bend_c, 0, 8197
2, 3129, Pitch_bend_c, 0, 8192
2, 3130, Pitch_bend_c, 0, 8192
2, 3131, Pitch_bend_c, 0, 8195
2, 3132, Pitch_bend_c, 0, 8200
2, 3133, Pitch_bend_c, 0, 8205
2, 3134, Pitch_bend_c, 0, 8205
2, 3135, Pitch_bend_c, 0, 8197
2, 3136, Pitch_bend_c, 0, 8192
2, 3137, Pitch_bend_c, 0, 8192
2, 3138, Pitch_bend_c, 0, 8187
2, 3139, Pitch_bend_c, 0, 8192
2, 3140, Pitch_bend_c, 0, 8195
2, 3141, Pitch_bend_c, 0, 8197
2, 3142, Pitch_bend_c, 0, 8192
2, 3143, Pitch_bend_c, 0, 8190
2, 3144, Pitch_bend_c, 0, 8187
2, 3145, Pitch_bend_c, 0, 8187
2, 3146, Pitch_bend_c, 0, 8187
2, 3147, Pitch_bend_c, 0, 8195
2, 3148, Pitch_bend_c, 0, 8195
2, 3149, Pitch_bend_c, 0, 8195
2, 3150, Pitch_bend_c, 0, 8190
2, 3151, Pitch_bend_c, 0, 8187
2, 3152, Pitch_bend_c, 0, 8182
2, 3153, Pitch_bend_c, 0, 8185
2, 3154, Pitch_bend_c, 0, 8187
2, 3155, Pitch_bend_c, 0, 8192
2, 3156, Pitch_bend_c, 0, 8192
2, 3157, Pitch_bend_c, 0, 8192
2, 3158, Pitch_bend_c, 0, 8185
2, 3159, Pitch_bend_c, 0, 8185
2, 3160, Pitch_bend_c, 0, 8185
2, 3161, Pitch_bend_c, 0, 8187
2, 3162, Pitch_bend_c, 0, 8190
2, 3163, Pitch_bend_c, 0, 8190
2, 3164, Pitch_bend_c, 0, 8187
2, 3165, Pitch_bend_c, 0, 8180
2, 3166, Pitch_bend_c, 0, 8178
2, 3167, Pitch_bend_c, 0, 8180
2, 3168, Pitch_bend_c, 0, 8187
2, 3169, Pitch_bend_c, 0, 8195
2, 3170, Pitch_bend_c, 0, 8200
2, 3171, Pitch_bend_c, 0, 8200
2, 3172, Pitch_bend_c, 0, 8195
2, 3173, Pitch_bend_c, 0, 8192
2, 3174, Pitch_bend_c, 0, 8192
2, 3175, Pitch_bend_c, 0, 8195
2, 3176, Pitch_bend_c, 0, 8197
2, 3177, Pitch_bend_c, 0, 8205
2, 3178, Pitch_bend_c, 0, 8207
2, 3179, Pitch_bend_c, 0, 8205
2, 3180, Pitch_bend_c, 0, 8202
2, 3181, Pitch_bend_c, 0, 8200
2, 3182, Pitch_bend_c, 0, 8202
2, 3183, Pitch_bend_c, 0, 8205
2, 3184, Pitch_bend_c, 0, 8212
2, 3185, Pitch_bend_c, 0, 8214
2, 3186, Pitch_bend_c, 0, 8212
2, 3187, Pitch_bend_c, 0, 8210
2, 3188, Pitch_bend_c, 0, 8207
2, 3189, Pitch_bend_c, 0, 8210
2, 3190, Pitch_bend_c, 0, 8212
2, 3191, Pitch_bend_c, 0, 8219
2, 3192, Pitch_bend_c, 0, 8222
2, 3193, Pitch_bend_c, 0, 8219
2, 3194, Pitch_bend_c, 0, 8217
2, 3195, Pitch_bend_c, 0, 8210
2, 3196, Pitch_bend_c, 0, 8210
2, 3197, Pitch_bend_c, 0, 8212
2, 3198, Pitch_bend_c, 0, 8217
2, 3199, Pitch_bend_c, 0, 8217
2, 3200, Pitch_bend_c, 0, 8219
2, 3201, Pitch_bend_c, 0, 8214
2, 3202, Pitch_bend_c, 0, 8207
2, 3203, Pitch_bend_c, 0, 8202
2, 3204, Pitch_bend_c, 0, 8205
2, 3205, Pitch_bend_c, 0, 8210
2, 3206, Pitch_bend_c, 0, 8214
2, 3207, Pitch_bend_c, 0, 8217
2, 3208, Pitch_bend_c, 0, 8217
2, 3209, Pitch_bend_c, 0, 8210
2, 3210, Pitch_bend_c, 0, 8207
2, 3211, Pitch_bend_c, 0, 8202
2, 3212, Pitch_bend_c, 0, 8205
2, 3213, Pitch_bend_c, 0, 8205
2, 3214, Pitch_bend_c, 0, 8212
2, 3215, Pitch_bend_c, 0, 8210
2, 3216, Pitch_bend_c, 0, 8205
2, 3217, Pitch_bend_c, 0, 8200
2, 3218, Pitch_bend_c, 0, 8195
2, 3219, Pitch_bend_c, 0, 8195
2, 3220, Pitch_bend_c, 0, 8202
2, 3221, Pitch_bend_c, 0, 8202
2, 3222, Pitch_bend_c, 0, 8202
2, 3223, Pitch_bend_c, 0, 8197
2, 3224, Pitch_bend_c, 0, 8192
2, 3225, Pitch_bend_c, 0, 8187
2, 3226, Pitch_bend_c, 0, 8190
2, 3227, Pitch_bend_c, 0, 8195
2, 3228, Pitch_bend_c, 0, 8200
2, 3229, Pitch_bend_c, 0, 8200
2, 3230, Pitch_bend_c, 0, 8197
2, 3231, Pitch_bend_c, 0, 8192
2, 3232, Pitch_bend_c, 0, 8187
2, 3233, Pitch_bend_c, 0, 8185
2, 3234, Pitch_bend_c, 0, 8192
2, 3235, Pitch_bend_c, 0, 8195
2, 3236, Pitch_bend_c, 0, 8200
2, 3237, Pitch_bend_c, 0, 8195
2, 3238, Pitch_bend_c, 0, 8190
2, 3239, Pitch_bend_c, 0, 8182
2, 3240, Pitch_bend_c, 0, 8180
2, 3241, Pitch_bend_c, 0, 8182
2, 3242, Pitch_bend_c, 0, 8187
2, 3243, Pitch_bend_c, 0, 8192
2, 3244, Pitch_bend_c, 0, 8190
2, 3245, Pitch_bend_c, 0, 8190
2, 3246, Pitch_bend_c, 0, 8185
2, 3247, Pitch_bend_c, 0, 8182
2, 3248, Pitch_bend_c, 0, 8187
2, 3249, Pitch_bend_c, 0, 8190
2, 3250, Pitch_bend_c, 0, 8197
2, 3251, Pitch_bend_c, 0, 8197
2, 3252, Pitch_bend_c, 0, 8200
2, 3253, Pitch_bend_c, 0, 8190
2, 3254, Pitch_bend_c, 0, 8192
2, 3255, Pitch_bend_c, 0, 8190
2, 3256, Pitch_bend_c, 0, 8195
2, 3257, Pitch_bend_c, 0, 8197
2, 3258, Pitch_bend_c, 0, 8200
2, 3259, Pitch_bend_c, 0, 8195
2, 3260, Pitch_bend_c, 0, 8192
2, 3261, Pitch_bend_c, 0, 8190
2, 3262, Pitch_bend_c, 0, 8192
2, 3263, Pitch_bend_c, 0, 8197
2, 3264, Pitch_bend_c, 0, 8205
2, 3265, Pitch_bend_c, 0, 8207
2, 3266, Pitch_bend_c, 0, 8205
2, 3267, Pitch_bend_c, 0, 8205
2, 3268, Pitch_bend_c, 0, 8202
2, 3269, Pitch_bend_c, 0, 8205
2, 3270, Pitch_bend_c, 0, 8207
2, 3271, Pitch_bend_c, 0, 8219
2, 3272, Pitch_bend_c, 0, 8219
2, 3273, Pitch_bend_c, 0, 8224
2, 3274, Pitch_bend_c, 0, 8219
2, 3275, Pitch_bend_c, 0, 8217
2, 3276, Pitch_bend_c, 0, 8217
2, 3277, Pitch_bend_c, 0, 8217
2, 3278, Pitch_bend_c, 0, 8224
2, 3279, Pitch_bend_c, 0, 8227
2, 3280, Pitch_bend_c, 0, 8227
2, 3281, Pitch_bend_c, 0, 8227
2, 3282, Pitch_bend_c, 0, 8219
2, 3283, Pitch_bend_c, 0, 8222
2, 3284, Pitch_bend_c, 0, 8219
2, 3285, Pitch_bend_c, 0, 8229
2, 3286, Pitch_bend_c, 0, 8232
2, 3287, Pitch_bend_c, 0, 8239
2, 3288, Pitch_bend_c, 0, 8237
2, 3289, Pitch_bend_c, 0, 8234
2, 3290, Pitch_bend_c, 0, 8232
2, 3291, Pitch_bend_c, 0, 8234
2, 3292, Pitch_bend_c, 0, 8234
2, 3293, Pitch_bend_c, 0, 8239
2, 3294, Pitch_bend_c, 0, 8239
2, 3295, Pitch_bend_c, 0, 8237
2, 3296, Pitch_bend_c, 0, 8229
2, 3297, Pitch_bend_c, 0, 8227
2, 3298, Pitch_bend_c, 0, 8224
2, 3299, Pitch_bend_c, 0, 8224
2, 3300, Pitch_bend_c, 0, 8224
2, 3301, Pitch_bend_c, 0, 8227
2, 3302, Pitch_bend_c, 0, 8227
2, 3303, Pitch_bend_c, 0, 8214
2, 3304, Pitch_bend_c, 0, 8212
2, 3305, Pitch_bend_c, 0, 8202
2, 3306, Pitch_bend_c, 0, 8205
2, 3307, Pitch_bend_c, 0, 8207
2, 3308, Pitch_bend_c, 0, 8207
2, 3309, Pitch_bend_c, 0, 8210
2, 3310, Pitch_bend_c, 0, 8202
2, 3311, Pitch_bend_c, 0, 8200
2, 3312, Pitch_bend_c, 0, 8200
2, 3313, Pitch_bend_c, 0, 8200
2, 3314, Pitch_bend_c, 0, 8200
2, 3315, Pitch_bend_c, 0, 8200
2, 3316, Pitch_bend_c, 0, 8200
2, 3317, Pitch_bend_c, 0, 8200
2, 3318, Pitch_bend_c, 0, 8200
2, 3319, Pitch_bend_c, 0, 8200
2, 3320, Pitch_bend_c, 0, 8200
2, 3321, Pitch_bend_c, 0, 8200
2, 3322, Pitch_bend_c, 0, 8200
2, 3323, Pitch_bend_c, 0, 8200
2, 3324, Pitch_bend_c, 0, 8200
2, 3325, Pitch_bend_c, 0, 8200
2, 3326, Pitch_bend_c, 0, 8200
2, 3327, Pitch_bend_c, 0, 8200
2, 3328, Pitch_bend_c, 0, 8200
2, 3329, Pitch_bend_c, 0, 8200
2, 3330, Pitch_bend_c, 0, 8200
2, 3331, Pitch_bend_c, 0, 8200
2, 3332, Pitch_bend_c, 0, 8200
2, 3333, Pitch_bend_c, 0, 8200
2, 3334, Pitch_bend_c, 0, 8200
2, 3335, Pitch_bend_c, 0, 8200
2, 3336, Pitch_bend_c, 0, 8200
2, 3337, Pitch_bend_c, 0, 8200
2, 3338, Pitch_bend_c, 0, 8200
2, 3339, Pitch_bend_c, 0, 8200
2, 3340, Pitch_bend_c, 0, 8200
2, 3341, Pitch_bend_c, 0, 8200
2, 3342, Pitch_bend_c, 0, 8200
2, 3343, Pitch_bend_c, 0, 8200
2, 3344, Pitch_bend_c, 0, 8200
2, 3345, Pitch_bend_c, 0, 8200
2, 3346, Pitch_bend_c, 0, 8200
2, 3347, Pitch_bend_c, 0, 8200
2, 3348, Pitch_bend_c, 0, 8200
2, 3349, Pitch_bend_c, 0, 8200
2, 3350, Pitch_bend_c, 0, 8200
2, 3351, Pitch_bend_c, 0, 8200
2, 3352, Pitch_bend_c, 0, 8200
2, 3353, Pitch_bend_c, 0, 8200
2, 3354, Pitch_bend_c, 0, 8200
2, 3355, Pitch_bend_c, 0, 8200
2, 3356, Pitch_bend_c, 0, 8200
2, 3357, Pitch_bend_c, 0, 8200
2, 3358, Pitch_bend_c, 0, 8200
2, 3360, Note_off_c, 0, 83, 102
2, 3360, End_track
0, 0, End_of_file
